<?xml version="1.0" encoding="UTF-8"?>
<svg version="1.1" xmlns="http://www.w3.org/2000/svg" width="2000" height="2000">
<path d="M0 0 C1.01890823 -0.00570007 2.03781647 -0.01140015 3.08760071 -0.01727295 C5.238159 -0.02666766 7.38873132 -0.03323476 9.53930664 -0.03710938 C12.74718171 -0.04671451 15.95438683 -0.07774991 19.16210938 -0.109375 C38.94285112 -0.21325615 58.0270037 1.89109912 77.17578125 6.890625 C77.84884308 7.06364136 78.52190491 7.23665771 79.21536255 7.41491699 C120.29623306 18.00657247 158.49787359 37.86486598 190.11328125 66.203125 C191.1508925 67.11735683 192.18864978 68.03142295 193.2265625 68.9453125 C213.97971498 87.39590104 231.10327358 110.13625051 244.59057617 134.35742188 C246.52814507 137.77866968 248.52292302 140.79224287 251.140625 143.734375 C254.14504506 147.1127337 256.28594653 150.63967834 258.36328125 154.640625 C258.70101562 155.25744141 259.03875 155.87425781 259.38671875 156.50976562 C264.04393792 165.31997747 264.43552017 173.37480826 264.37402344 183.22729492 C264.3634332 185.23679296 264.37491557 187.2463681 264.38671875 189.25585938 C264.37101386 197.26142653 263.78138889 204.90968236 262.54199219 212.79858398 C262.100722 216.30286236 262.04248967 219.67506359 262.11328125 223.203125 C274.96173146 222.75071478 287.47940191 220.44371563 300.11328125 218.203125 C301.54318966 213.91339976 299.72806791 211.01437996 298.08984375 207.015625 C297.7568074 206.18156128 297.42377106 205.34749756 297.0806427 204.48815918 C296.35523798 202.6747775 295.6255229 200.86311561 294.89205933 199.05297852 C293.73069053 196.18437578 292.58255535 193.31079389 291.43774414 190.43554688 C287.80285365 181.31971004 284.1267942 172.2212859 280.40789795 163.1394043 C278.82394451 159.26303563 277.25424336 155.38098017 275.6864624 151.49804688 C274.93500852 149.64871189 274.17635879 147.80228305 273.41021729 145.95898438 C265.27410132 126.38197128 265.27410132 126.38197128 267.11328125 118.203125 C269.01016555 115.54748698 270.2581318 114.63069973 273.11328125 113.203125 C275.50390625 112.96484375 275.50390625 112.96484375 278.36328125 112.890625 C279.2965625 112.85324219 280.22984375 112.81585938 281.19140625 112.77734375 C287.35527971 113.67555526 291.32453689 118.19925071 295.48828125 122.515625 C298.48952308 125.61867887 301.49440554 128.56347386 304.77587891 131.36791992 C309.20997212 135.23051494 313.35547279 139.33525461 317.48828125 143.515625 C318.2570459 144.28817627 319.02581055 145.06072754 319.81787109 145.85668945 C323.07187955 149.12688536 326.31984391 152.4030599 329.56835938 155.67871094 C331.95623477 158.08477785 334.34718918 160.48775538 336.73828125 162.890625 C337.45935059 163.61999268 338.18041992 164.34936035 338.92333984 165.10083008 C342.85469383 169.05088742 346.88999045 172.78695469 351.11019897 176.42489624 C354.70806247 179.61888603 358.0642832 183.05237995 361.4453125 186.47265625 C362.20373947 187.23486984 362.96216644 187.99708344 363.74357605 188.78239441 C366.14010973 191.19103639 368.53334382 193.60291472 370.92578125 196.015625 C374.09608939 199.21250261 377.26968027 202.40606831 380.4453125 205.59765625 C381.17031448 206.33095657 381.89531647 207.0642569 382.64228821 207.81977844 C383.3169664 208.49775986 383.99164459 209.17574127 384.68676758 209.87426758 C385.27774734 210.47048416 385.86872711 211.06670074 386.47761536 211.6809845 C389.96042219 214.92206287 392.26112823 215.48209074 396.890625 215.6953125 C398.6221582 215.79392578 398.6221582 215.79392578 400.38867188 215.89453125 C402.7946269 216.0151498 405.2008839 216.12991436 407.60742188 216.23828125 C418.33921936 216.86712068 427.66725996 219.52796598 437.11328125 224.640625 C438.16515625 225.19621094 439.21703125 225.75179687 440.30078125 226.32421875 C443.86509414 228.70537778 446.19757722 231.37171695 448.11328125 235.203125 C448.66336446 239.71200377 448.56199342 243.24961164 446.61328125 247.390625 C435.28118779 260.13923014 419.24003805 264.04208241 402.91601562 265.4140625 C395.97672908 266.05854388 391.71230115 267.17453759 386.73828125 272.328125 C386.02929688 273.05257813 385.3203125 273.77703125 384.58984375 274.5234375 C382.62269152 276.65193344 380.70850167 278.80460991 378.80859375 280.9921875 C375.10157169 285.25112846 371.24985412 289.35835977 367.36328125 293.453125 C361.81984345 299.31733119 356.32550695 305.21825299 350.88671875 311.1796875 C347.65584503 314.71264437 344.38390381 318.20700302 341.11328125 321.703125 C336.03546837 327.13179351 330.9968346 332.59290387 325.984375 338.08203125 C323.82533396 340.43783786 321.64679664 342.77452796 319.4609375 345.10546875 C318.83316406 345.77513672 318.20539062 346.44480469 317.55859375 347.13476562 C316.33495471 348.43837277 315.10977812 349.74053899 313.8828125 351.04101562 C309.22632633 355.9009103 309.22632633 355.9009103 305.11328125 361.203125 C306.34567436 364.90030434 307.82123561 365.32056776 311.17919922 367.00463867 C311.85869629 367.33826416 312.53819336 367.67188965 313.23828125 368.015625 C327.4486114 375.36688519 336.84188712 386.87585853 342.11328125 402.203125 C348.13191136 423.70049123 342.48835348 443.21212627 332.11328125 462.203125 C331.50613281 463.34265625 330.89898438 464.4821875 330.2734375 465.65625 C324.59562338 475.9795484 317.87217277 485.56824531 311.11328125 495.203125 C310.68289551 495.82155273 310.25250977 496.43998047 309.80908203 497.07714844 C303.17993511 506.59856963 296.1367934 515.79850367 289.078125 525.00390625 C286.62378216 528.20944636 284.19469527 531.42981594 281.8046875 534.68359375 C275.68260056 543.01589099 269.28404846 550.75450391 262.11328125 558.203125 C261.36175781 559.02941406 260.61023437 559.85570312 259.8359375 560.70703125 C233.47455713 588.78077479 192.77334895 604.83263833 154.72827148 606.42431641 C149.9815314 606.56714352 145.23687531 606.58967379 140.48828125 606.578125 C139.21553848 606.57730927 139.21553848 606.57730927 137.91708374 606.57647705 C122.04108743 606.53006415 106.74144328 605.13923099 91.11328125 602.203125 C89.93733398 601.98350098 88.76138672 601.76387695 87.54980469 601.53759766 C50.67050079 594.47081485 15.43051286 583.43389702 -13.88671875 559.203125 C-14.7065625 558.53667969 -15.52640625 557.87023437 -16.37109375 557.18359375 C-25.97235535 549.05562919 -32.91939218 538.95046696 -39.72265625 528.48828125 C-40.43679688 527.40417969 -41.1509375 526.32007813 -41.88671875 525.203125 C-42.30848389 524.51371826 -42.73024902 523.82431152 -43.16479492 523.11401367 C-45.44766106 520.58062458 -47.31300977 520.18434369 -50.6015625 519.34375 C-52.32838257 518.88367554 -52.32838257 518.88367554 -54.09008789 518.41430664 C-55.32235107 518.0971167 -56.55461426 517.77992676 -57.82421875 517.453125 C-69.93004022 514.16178003 -81.42791151 510.29566219 -92.88671875 505.203125 C-94.08216309 504.67549561 -94.08216309 504.67549561 -95.30175781 504.13720703 C-120.54786892 492.88017352 -143.15785099 477.94755363 -163.5625 459.3046875 C-165.5923689 457.46927663 -167.66381235 455.70931056 -169.76171875 453.953125 C-184.91490401 440.69027673 -196.85631185 423.91002311 -207.88671875 407.203125 C-208.30711426 406.56826172 -208.72750977 405.93339844 -209.16064453 405.27929688 C-210.33422963 403.49213037 -211.48949465 401.6947999 -212.63671875 399.890625 C-213.2915625 398.86324219 -213.94640625 397.83585937 -214.62109375 396.77734375 C-215.88671875 394.203125 -215.88671875 394.203125 -214.88671875 391.203125 C-212.78807599 389.90626369 -210.75408632 388.7883047 -208.55078125 387.69921875 C-207.91562592 387.37526627 -207.28047058 387.05131378 -206.62606812 386.71754456 C-204.59252204 385.6825845 -202.55249091 384.66125128 -200.51171875 383.640625 C-198.47956138 382.61372674 -196.44882184 381.58409227 -194.41879272 380.55299377 C-193.15489455 379.91219366 -191.88950235 379.27432982 -190.62246704 378.63975525 C-187.92075488 377.27998916 -185.40865783 375.88441772 -182.88671875 374.203125 C-181.89671875 374.203125 -180.90671875 374.203125 -179.88671875 374.203125 C-178.23086086 376.56993838 -176.76917838 378.89906272 -175.32421875 381.390625 C-168.44507472 392.79475643 -160.5130847 402.79916591 -151.40625 412.49609375 C-149.3294415 414.72745544 -147.34592278 416.9948486 -145.38671875 419.328125 C-141.01581238 424.36902431 -136.07169482 429.00699179 -130.88671875 433.203125 C-130.22671875 433.203125 -129.56671875 433.203125 -128.88671875 433.203125 C-128.8609375 431.95660156 -128.83515625 430.71007812 -128.80859375 429.42578125 C-128.05431874 403.74741537 -119.36721981 382.09755303 -108.56576538 359.03607178 C-107.82629836 357.44961417 -107.09602545 355.85883588 -106.37539673 354.26373291 C-99.83555557 339.86027096 -99.83555557 339.86027096 -94.49609375 337.3828125 C-92.97327105 336.93970483 -91.43492837 336.54718946 -89.88671875 336.203125 C-88.17980445 335.63106643 -86.47542472 335.05139889 -84.7734375 334.46484375 C-83.04226131 333.93388014 -81.30915888 333.40915767 -79.57421875 332.890625 C-78.69443359 332.61412109 -77.81464844 332.33761719 -76.90820312 332.05273438 C-76.05935547 331.79685547 -75.21050781 331.54097656 -74.3359375 331.27734375 C-73.57627686 331.04619873 -72.81661621 330.81505371 -72.03393555 330.5769043 C-69.62039283 330.156764 -68.16850381 330.33790936 -65.88671875 331.203125 C-64.7265625 333.015625 -64.7265625 333.015625 -63.82421875 335.203125 C-62.97539237 337.3676823 -62.97539237 337.3676823 -61.88671875 339.203125 C-60.89671875 339.533125 -59.90671875 339.863125 -58.88671875 340.203125 C-58.62979248 339.62868652 -58.37286621 339.05424805 -58.1081543 338.46240234 C-56.93151778 335.83370685 -55.75288494 333.20591101 -54.57421875 330.578125 C-53.96803711 329.22267578 -53.96803711 329.22267578 -53.34960938 327.83984375 C-52.95322266 326.95683594 -52.55683594 326.07382812 -52.1484375 325.1640625 C-51.76349121 324.30522461 -51.37854492 323.44638672 -50.98193359 322.56152344 C-50.06589607 320.58895935 -49.05887856 318.65898519 -48.03125 316.7421875 C-46.52334252 314.16300178 -46.52334252 314.16300178 -47.88671875 311.203125 C-80.23970842 319.70530037 -112.12736556 330.0290692 -142.88671875 343.203125 C-144.05605957 343.70247559 -145.22540039 344.20182617 -146.43017578 344.71630859 C-171.13119548 355.34802926 -195.44136653 367.14474611 -218.88671875 380.328125 C-219.7689209 380.82376953 -220.65112305 381.31941406 -221.56005859 381.83007812 C-229.27061801 386.25664904 -237.1508963 390.9830532 -243.38671875 397.390625 C-244.3303125 398.34001953 -244.3303125 398.34001953 -245.29296875 399.30859375 C-248.40006496 403.00207822 -249.42871906 406.20685441 -249.35546875 411.10546875 C-248.60886122 414.44653745 -246.57727698 416.3907638 -244.19921875 418.7578125 C-242.88671875 420.203125 -242.88671875 420.203125 -242.88671875 422.203125 C-250.62035608 421.69875735 -257.90206069 418.75520819 -263.26171875 413.015625 C-269.91729927 404.18563608 -271.01817109 395.06737655 -269.88671875 384.203125 C-268.98380313 380.28203639 -267.62680485 376.82423876 -265.88671875 373.203125 C-265.46261719 372.30078125 -265.03851562 371.3984375 -264.6015625 370.46875 C-255.34321028 352.20993837 -238.61334805 337.52153448 -222.44921875 325.3984375 C-220.0938432 323.5965752 -217.84084994 321.67724167 -215.57421875 319.765625 C-172.53281954 284.4528274 -118.45367093 257.79325013 -65.88671875 240.203125 C-65.15694824 239.95852539 -64.42717773 239.71392578 -63.67529297 239.46191406 C-42.13686299 232.30879264 -20.32060552 227.3219918 1.95881653 223.13635254 C3.41444696 222.86119044 4.86937975 222.58230784 6.3235321 222.29943848 C9.21411438 221.737568 12.08969091 221.20626123 15.00927734 220.81811523 C18.00542961 220.37143974 20.42020366 219.91460492 22.58447266 217.69287109 C23.89543279 215.77352069 24.95464014 213.84661079 25.98828125 211.765625 C26.7111931 210.41080616 27.43764353 209.05786829 28.16796875 207.70703125 C28.47202637 207.10705322 28.77608398 206.5070752 29.08935547 205.88891602 C30.21777239 204.03109083 31.57360234 202.72618867 33.11328125 201.203125 C33.92774234 199.19739859 33.92774234 199.19739859 34.11328125 197.203125 C33.78328125 196.543125 33.45328125 195.883125 33.11328125 195.203125 C27.61351876 193.5873047 22.58176915 194.81401512 17.05078125 195.765625 C15.98384033 195.94907471 14.91689941 196.13252441 13.81762695 196.3215332 C-12.20393058 201.01876787 -35.15328825 210.85366027 -55.21948242 228.25488281 C-63.27014314 235.20689106 -69.11974542 239.58695967 -79.83984375 239.484375 C-86.59990736 238.86036913 -90.26712002 234.91652269 -94.88671875 230.203125 C-112.17078414 238.51039481 -128.92310145 247.63616596 -145.1484375 257.87109375 C-145.75292725 258.25177002 -146.35741699 258.63244629 -146.98022461 259.0246582 C-148.49291454 259.98667103 -149.99509783 260.96515396 -151.49609375 261.9453125 C-153.88671875 263.203125 -153.88671875 263.203125 -157.88671875 263.203125 C-168.35674547 246.02414912 -173.72616018 229.1083245 -169.00390625 208.73828125 C-165.79939123 198.45624466 -160.39845695 189.59142957 -154.07421875 180.953125 C-151.01593593 176.6383919 -149.40787172 173.50151355 -148.88671875 168.203125 C-149.79088614 164.39270529 -150.67153964 162.12180041 -153.83984375 159.7265625 C-155.25042227 158.85890449 -156.68529683 158.02916277 -158.14453125 157.24609375 C-159.88671875 156.203125 -159.88671875 156.203125 -160.88671875 154.203125 C-161.10746716 152.46579694 -161.27802513 150.72194093 -161.421875 148.9765625 C-161.50888672 147.9453125 -161.59589844 146.9140625 -161.68554688 145.8515625 C-161.77255859 144.77132812 -161.85957031 143.69109375 -161.94921875 142.578125 C-162.08553711 140.94617188 -162.08553711 140.94617188 -162.22460938 139.28125 C-162.44897826 136.58882343 -162.66951989 133.89613791 -162.88671875 131.203125 C-163.87671875 131.203125 -164.86671875 131.203125 -165.88671875 131.203125 C-197.28612728 165.37306957 -211.22139383 223.02338725 -209.76318359 268.01464844 C-209.44090504 273.84887148 -208.9628463 279.65772914 -208.39453125 285.47265625 C-208.30896973 286.45129639 -208.2234082 287.42993652 -208.13525391 288.43823242 C-207.97645525 290.20482843 -207.78642887 291.96907596 -207.55615234 293.7277832 C-207.26712649 297.07900633 -207.15867245 299.23570469 -209.22998047 301.98803711 C-211.15041798 303.75029956 -213.13567566 305.25831678 -215.26171875 306.765625 C-215.99181152 307.31863281 -216.7219043 307.87164063 -217.47412109 308.44140625 C-218.93087338 309.54370897 -220.39578018 310.63532854 -221.86914062 311.71533203 C-224.47692914 313.63835517 -226.99584477 315.66187141 -229.51171875 317.703125 C-230.27871094 318.31027344 -231.04570313 318.91742187 -231.8359375 319.54296875 C-233.71798776 321.06653325 -235.5185868 322.65329671 -237.32421875 324.265625 C-238.16984375 324.905 -239.01546875 325.544375 -239.88671875 326.203125 C-240.87671875 325.873125 -241.86671875 325.543125 -242.88671875 325.203125 C-258.17733082 254.99737188 -248.32564341 181.15630807 -209.02783203 119.94750977 C-207.05119565 116.98014955 -204.98734473 114.08361932 -202.88671875 111.203125 C-202.42442871 110.56117188 -201.96213867 109.91921875 -201.48583984 109.2578125 C-158.87269648 50.29658843 -95.76859385 13.2190211 -24.16381836 1.64868164 C-16.09342826 0.55142604 -8.14360142 0.03650578 0 0 Z M-128.44921875 90.203125 C-129.00391846 90.647771 -129.55861816 91.09241699 -130.13012695 91.55053711 C-131.83004125 92.94039796 -131.83004125 92.94039796 -133.88671875 95.203125 C-134.27966036 99.06994384 -134.27966036 99.06994384 -132.453125 101.16796875 C-123.06684005 110.40787888 -114.00979294 113.31490703 -101.30078125 115.9453125 C-99.54894531 116.32042969 -99.54894531 116.32042969 -97.76171875 116.703125 C-96.68664062 116.9196875 -95.6115625 117.13625 -94.50390625 117.359375 C-91.88671875 118.203125 -91.88671875 118.203125 -89.88671875 121.203125 C-89.5242839 126.73025648 -90.09626131 131.68354755 -91.01171875 137.140625 C-92.15621411 144.71881928 -91.80603194 150.57775564 -88.19921875 157.390625 C-87.43609375 158.31875 -86.67296875 159.246875 -85.88671875 160.203125 C-85.47292969 160.76644531 -85.05914063 161.32976562 -84.6328125 161.91015625 C-79.47303235 168.09380923 -72.33779081 170.03723667 -64.95361328 172.45068359 C-62.88671875 173.203125 -62.88671875 173.203125 -59.3203125 175.00390625 C-53.14456028 177.89512433 -49.19649918 178.90837952 -42.74609375 176.75390625 C-38.80977988 175.23109617 -34.95881562 173.53099049 -31.09765625 171.828125 C-24.92895379 169.1272442 -18.70144897 167.18061114 -12.19921875 165.453125 C-11.13856201 165.17082031 -10.07790527 164.88851562 -8.98510742 164.59765625 C0.6766806 162.13653258 10.45194149 160.39719797 20.3034668 158.88769531 C21.9882312 158.61844238 21.9882312 158.61844238 23.70703125 158.34375 C24.70412109 158.19454102 25.70121094 158.04533203 26.72851562 157.89160156 C29.46115247 157.38065961 29.46115247 157.38065961 31.11328125 154.203125 C30.57058594 153.501875 30.02789063 152.800625 29.46875 152.078125 C23.78130241 144.53585217 19.03470287 138.09009347 20.11328125 128.203125 C21.34240026 123.74756857 22.86307319 120.98732222 26.55078125 118.265625 C31.89385883 115.32448138 37.18397288 115.14459388 43.11328125 116.203125 C50.05906897 118.9003214 55.08203898 123.78598611 60.10546875 129.15234375 C61.99321061 131.08048476 63.91317175 132.649236 66.11328125 134.203125 C66.11328125 133.543125 66.11328125 132.883125 66.11328125 132.203125 C66.79390625 131.996875 67.47453125 131.790625 68.17578125 131.578125 C72.04245979 129.76819037 75.17745702 127.30468125 78.11328125 124.203125 C80.35428108 117.48012552 78.71734409 111.92527403 76.30078125 105.578125 C75.99237305 104.76053711 75.68396484 103.94294922 75.36621094 103.10058594 C67.39703239 82.70227151 55.86365155 65.5591999 41.62109375 49.10546875 C39.11328125 46.203125 39.11328125 46.203125 36.83984375 42.9296875 C33.15080205 39.2406458 30.43235439 38.98261938 25.36328125 38.640625 C24.46714111 38.569646 23.57100098 38.49866699 22.64770508 38.42553711 C-31.75905843 35.31825915 -86.73940146 56.03897703 -128.44921875 90.203125 Z M122.69506836 157.65673828 C120.15850415 158.08101484 117.6196439 158.48865008 115.08007812 158.89453125 C113.45687128 159.16048384 111.83381819 159.42737691 110.2109375 159.6953125 C109.45676041 159.8162326 108.70258331 159.93715271 107.92555237 160.06173706 C104.35185753 160.66992452 101.23538719 161.3101665 98.11328125 163.203125 C98.63596591 165.96588677 99.22197712 168.5292126 100.11328125 171.203125 C101.07699384 178.83022179 99.7118402 184.08160243 95.11328125 190.203125 C92.43436648 193.31958209 89.68284637 196.3388923 86.8515625 199.31640625 C83.49614607 202.85371401 80.29542651 206.51053323 77.11328125 210.203125 C78.27308057 211.83047284 78.27308057 211.83047284 80.11328125 213.203125 C82.61499845 213.38570206 82.61499845 213.38570206 85.42333984 212.93286133 C86.50811615 212.79894485 87.59289246 212.66502838 88.71054077 212.52705383 C90.46837387 212.28356453 90.46837387 212.28356453 92.26171875 212.03515625 C93.46639801 211.88028244 94.67107727 211.72540863 95.91226196 211.56584167 C98.46369278 211.23456384 101.01409102 210.89525037 103.56347656 210.54858398 C107.46336022 210.01900909 111.3658249 209.51420392 115.26953125 209.01367188 C117.74628515 208.68895661 120.22285465 208.36283099 122.69921875 208.03515625 C123.86705902 207.8829512 125.03489929 207.73074615 126.23812866 207.57392883 C127.32920929 207.42425156 128.42028992 207.27457428 129.54443359 207.12036133 C130.97980972 206.92691887 130.97980972 206.92691887 132.44418335 206.72956848 C135.21885211 206.18230257 137.57087132 205.44172013 140.11328125 204.203125 C141.1925707 202.01535861 141.1925707 202.01535861 141.5546875 199.35546875 C141.83832153 197.8703479 141.83832153 197.8703479 142.12768555 196.35522461 C142.30855713 195.29440674 142.48942871 194.23358887 142.67578125 193.140625 C143.0880719 190.95279036 143.50214599 188.76529107 143.91796875 186.578125 C144.11745117 185.49660156 144.31693359 184.41507813 144.52246094 183.30078125 C145.33292139 179.05155721 146.29120331 174.84632048 147.30078125 170.640625 C147.60371094 169.36058594 147.90664062 168.08054687 148.21875 166.76171875 C149.11021326 163.21532999 150.08797709 159.71264628 151.11328125 156.203125 C149.52285106 154.61269481 147.94887773 154.99881407 145.734375 154.9609375 C137.94796537 155.03395476 130.35546567 156.37163297 122.69506836 157.65673828 Z M187.046875 169.39453125 C182.02211457 176.69312267 178.89969015 186.60124989 179.05078125 195.515625 C179.07140625 196.7325 179.09203125 197.949375 179.11328125 199.203125 C179.70496094 199.38488281 180.29664063 199.56664062 180.90625 199.75390625 C182.09154297 200.13095703 182.09154297 200.13095703 183.30078125 200.515625 C184.07808594 200.75925781 184.85539062 201.00289062 185.65625 201.25390625 C190.66665179 203.18956227 193.76204418 205.61082406 196.9609375 209.9140625 C197.64865234 210.82929687 198.33636719 211.74453125 199.04492188 212.6875 C199.74810547 213.64140625 200.45128906 214.5953125 201.17578125 215.578125 C202.58296569 217.46121229 203.99050658 219.34403327 205.3984375 221.2265625 C206.015979 222.06106934 206.63352051 222.89557617 207.26977539 223.75537109 C207.87813232 224.56312988 208.48648926 225.37088867 209.11328125 226.203125 C209.77642334 227.12174316 210.43956543 228.04036133 211.12280273 228.98681641 C213.02021055 231.58767286 213.02021055 231.58767286 216.67578125 231.640625 C220.22885699 231.44761616 220.22885699 231.44761616 223.11328125 229.203125 C223.96595122 226.36254228 223.96595122 226.36254228 224.4296875 222.97265625 C224.7400293 221.05356445 224.7400293 221.05356445 225.05664062 219.09570312 C225.26317583 217.73570061 225.46955556 216.37567448 225.67578125 215.015625 C225.98805664 213.07139648 225.98805664 213.07139648 226.30664062 211.08789062 C226.93452343 207.12967019 227.53218048 203.168407 228.11328125 199.203125 C228.26600494 198.17392441 228.26600494 198.17392441 228.42181396 197.12393188 C228.7207951 195.09140243 229.01044992 193.05777067 229.296875 191.0234375 C229.46630615 189.83121582 229.6357373 188.63899414 229.81030273 187.41064453 C230.52622078 179.83148963 228.47002127 174.73028118 223.67578125 168.921875 C218.58384922 163.32074976 212.97891066 160.73812734 205.484375 159.9140625 C196.92642219 159.63347388 192.55901568 163.04879651 187.046875 169.39453125 Z M175.11328125 222.203125 C171.97048139 231.09784158 169.91273367 239.40047835 171.86328125 248.828125 C172.11328125 252.203125 172.11328125 252.203125 170.30078125 254.890625 C166.409171 260.7836348 166.33070213 267.7574149 165.69140625 274.66796875 C164.05313189 292.13200972 164.05313189 292.13200972 160.11328125 297.203125 C153.13585194 302.16352443 145.19003256 301.73830369 136.98828125 301.578125 C135.56918156 301.56490435 134.15007263 301.55264647 132.73095703 301.54125977 C123.91407026 301.44058077 115.10890423 301.09987084 106.30078125 300.70703125 C104.77519089 300.63923462 104.77519089 300.63923462 103.21878052 300.57006836 C98.20299077 300.3432318 93.18883808 300.09964176 88.17529297 299.82763672 C54.29264325 298.07944166 20.45335227 299.6301202 -6.32421875 322.703125 C-10.71064048 326.81403595 -14.3980136 331.31662739 -17.88671875 336.203125 C-16.49334759 339.58600033 -15.14683502 340.93393619 -12.01171875 342.765625 C-3.30877929 348.33048533 3.86252063 355.69764358 10.67578125 363.390625 C20.13220352 373.91596071 28.39400526 378.38597884 42.28613281 380.54003906 C64.98092369 384.07076744 64.98092369 384.07076744 70.61328125 389.703125 C73.33429046 396.05214649 73.8621022 402.72959781 74.5703125 409.55078125 C74.65071777 410.29996826 74.73112305 411.04915527 74.81396484 411.82104492 C74.96836691 413.29263985 75.11118851 414.76550991 75.24072266 416.23950195 C76.12024777 424.85581518 79.70505578 429.10724271 85.859375 434.76171875 C91.52495807 440.89861549 92.71739077 445.46490011 92.42578125 453.578125 C92.41611328 454.37734375 92.40644531 455.1765625 92.39648438 456 C92.30604646 460.86005505 91.87538395 465.574336 91.12573242 470.37744141 C91.12162354 470.97991699 91.11751465 471.58239258 91.11328125 472.203125 C91.77328125 472.863125 92.43328125 473.523125 93.11328125 474.203125 C94.23089844 473.6359375 95.34851562 473.06875 96.5 472.484375 C99.58069439 470.94233697 102.68324615 469.47053648 105.8203125 468.046875 C127.03344479 458.36194284 145.73064845 446.05140203 162.875 430.25390625 C164.97624744 428.32867954 167.12647431 426.48234197 169.30078125 424.640625 C173.30786016 421.14851205 176.69318655 417.25969472 180.11328125 413.203125 C181.42305181 411.70074112 182.73547876 410.20066819 184.05078125 408.703125 C184.93056641 407.69765625 184.93056641 407.69765625 185.828125 406.671875 C186.25222656 406.1871875 186.67632813 405.7025 187.11328125 405.203125 C186.654375 404.52507812 186.19546875 403.84703125 185.72265625 403.1484375 C177.7683048 391.08322375 174.92612347 381.34641892 174.80078125 367.015625 C174.77177734 365.92958984 174.74277344 364.84355469 174.71289062 363.72460938 C174.61812995 351.58795348 179.48921046 343.06728105 185.578125 332.90429688 C188.74005569 327.43539863 191.79673332 321.57611103 190.78173828 315.08178711 C190.21709932 312.94952227 190.21709932 312.94952227 189.11328125 310.203125 C190.13808594 310.3475 191.16289063 310.491875 192.21875 310.640625 C193.57940279 310.82830125 194.94008124 311.01579142 196.30078125 311.203125 C196.97431641 311.29851562 197.64785156 311.39390625 198.34179688 311.4921875 C203.71246384 312.25301911 203.71246384 312.25301911 209.11328125 312.203125 C211.41483055 309.9015757 211.50340428 309.07107481 211.9987793 305.94042969 C212.14200119 305.05901306 212.28522308 304.17759644 212.43278503 303.26947021 C212.65168144 301.83670746 212.65168144 301.83670746 212.875 300.375 C213.02991409 299.39323792 213.18482819 298.41147583 213.34443665 297.39996338 C213.67033375 295.31920154 213.99200985 293.23777492 214.30981445 291.15576172 C214.7969766 287.97794319 215.30281968 284.80349583 215.81054688 281.62890625 C216.12483627 279.60694745 216.43802312 277.5848169 216.75 275.5625 C216.90200363 274.61542175 217.05400726 273.66834351 217.21061707 272.69256592 C217.92362255 267.92717167 218.2963951 263.9592723 217.11328125 259.203125 C212.28410251 263.545782 209.06428083 268.6093716 205.61328125 274.078125 C194.53543433 291.47882655 194.53543433 291.47882655 190.11328125 293.203125 C187.82324219 293.52197266 187.82324219 293.52197266 185.34765625 293.6171875 C184.45820312 293.65585937 183.56875 293.69453125 182.65234375 293.734375 C181.73195313 293.7653125 180.8115625 293.79625 179.86328125 293.828125 C178.92742187 293.86679687 177.9915625 293.90546875 177.02734375 293.9453125 C174.72283991 294.03937388 172.41831416 294.12346195 170.11328125 294.203125 C171.97935702 288.0644174 174.30290427 282.47035663 177.30859375 276.80859375 C177.70150604 276.0539534 178.09441833 275.29931305 178.49923706 274.52180481 C179.73936944 272.14143336 180.98803849 269.76569961 182.23828125 267.390625 C183.49479793 264.99727135 184.74930406 262.60294052 185.99874878 260.20588684 C186.77236251 258.72225213 187.55011758 257.24076743 188.33255005 255.76176453 C190.75159018 251.16771189 190.75159018 251.16771189 192.11328125 246.203125 C191.00796266 243.54252903 191.00796266 243.54252903 189.25390625 240.81640625 C188.63257813 239.79611328 188.01125 238.77582031 187.37109375 237.72460938 C186.70851563 236.66564453 186.0459375 235.60667969 185.36328125 234.515625 C184.71617187 233.44505859 184.0690625 232.37449219 183.40234375 231.27148438 C180.31673149 225.49982796 180.31673149 225.49982796 175.11328125 222.203125 Z M411.11328125 222.203125 C410.31971324 223.94984088 410.31971324 223.94984088 410.11328125 226.203125 C410.58121094 226.91726563 411.04914062 227.63140625 411.53125 228.3671875 C413.79779999 232.43018823 413.51423955 236.00659995 413.42578125 240.578125 C413.42900391 241.403125 413.43222656 242.228125 413.43554688 243.078125 C413.39124931 248.15220969 412.73954965 252.39559052 411.11328125 257.203125 C412.10328125 257.863125 413.09328125 258.523125 414.11328125 259.203125 C421.69619996 257.35173988 428.57766751 253.64701525 433.11328125 247.203125 C435.04025509 243.0527198 435.34744015 241.13976061 434.23828125 236.703125 C431.23437604 230.94132406 426.71009554 227.21332735 420.69921875 224.875 C417.51982949 223.8913981 414.34498367 222.99627148 411.11328125 222.203125 Z M254.11328125 266.203125 C253.45397521 268.59358139 252.98200092 270.81753995 252.59765625 273.25390625 C252.47573914 273.96356033 252.35382202 274.67321442 252.22821045 275.40437317 C251.84327124 277.66862931 251.47733546 279.93542621 251.11328125 282.203125 C250.87358936 283.64510981 250.63336411 285.08700607 250.39257812 286.52880859 C249.80365891 290.09396381 249.24292376 293.66282748 248.69580078 297.23461914 C248.35732665 299.4292337 248.00671796 301.62172583 247.65625 303.81445312 C247.43805848 305.22905217 247.2205826 306.64376183 247.00390625 308.05859375 C246.80829102 309.31309326 246.61267578 310.56759277 246.41113281 311.86010742 C245.92815964 315.50109447 245.92815964 315.50109447 247.11328125 320.203125 C254.04328125 322.183125 260.97328125 324.163125 268.11328125 326.203125 C267.41587046 332.47982213 266.58837773 337.74177658 264.73828125 343.640625 C264.51567627 344.37273193 264.29307129 345.10483887 264.0637207 345.85913086 C263.6223467 347.30908529 263.177873 348.75810056 262.72998047 350.20605469 C261.90204453 352.8871774 261.10146228 355.57625617 260.30078125 358.265625 C259.9054564 359.57827824 259.50986511 360.89085158 259.11328125 362.203125 C260.10328125 362.863125 261.09328125 363.523125 262.11328125 364.203125 C263.73253495 363.79831157 265.34981782 363.37444867 266.93359375 362.84765625 C270.50935852 361.79030645 274.18071927 361.2737517 277.85546875 360.66796875 C280.0724749 360.42726154 280.0724749 360.42726154 281.11328125 359.203125 C281.49761236 357.35397005 281.84996092 355.49817702 282.19140625 353.640625 C284.50716854 342.5608519 288.2890053 331.92758047 291.86328125 321.203125 C292.561894 319.09267821 293.25981456 316.98200216 293.95703125 314.87109375 C294.30092896 313.83009521 294.64482666 312.78909668 294.99914551 311.71655273 C296.36534157 307.57788175 297.72998484 303.43870277 299.0925293 299.29882812 C299.7836016 297.20296666 300.47719846 295.10793624 301.1730957 293.01367188 C302.18784323 289.95458622 303.19093296 286.89190397 304.19140625 283.828125 C304.50180847 282.9004834 304.81221069 281.9728418 305.13201904 281.01708984 C305.54668427 279.73632568 305.54668427 279.73632568 305.96972656 278.4296875 C306.21571594 277.68283691 306.46170532 276.93598633 306.71514893 276.16650391 C307.3236087 274.00334718 307.3236087 274.00334718 306.11328125 271.203125 C297.451969 269.83400802 288.78537862 268.50218885 280.11328125 267.203125 C278.97793945 267.03280762 277.84259766 266.86249023 276.67285156 266.68701172 C273.50902215 266.21959593 270.34320106 265.7704764 267.17578125 265.328125 C266.20632568 265.1839917 265.23687012 265.0398584 264.23803711 264.89135742 C262.8943103 264.70923706 262.8943103 264.70923706 261.5234375 264.5234375 C260.74105713 264.41273926 259.95867676 264.30204102 259.15258789 264.18798828 C256.79518133 264.01904608 256.79518133 264.01904608 254.11328125 266.203125 Z M263.11328125 403.203125 C259.49943701 406.57124477 256.01998834 410.06186942 252.55078125 413.578125 C251.19049805 414.939375 251.19049805 414.939375 249.80273438 416.328125 C245.22115103 420.93960991 240.78828319 425.61779764 236.55444336 430.55029297 C234.31899493 433.11407171 231.86788447 435.42404943 229.3984375 437.7578125 C227.89178485 439.12988239 227.89178485 439.12988239 228.11328125 441.203125 C227.59765625 441.450625 227.08203125 441.698125 226.55078125 441.953125 C223.95950965 443.20609305 223.95950965 443.20609305 221.23828125 445.265625 C217.56195017 447.46187474 214.34490539 447.4257816 210.11328125 447.515625 C203.98291865 447.7926246 203.98291865 447.7926246 199.23828125 451.328125 C198.18596062 452.61112676 197.14412121 453.9028015 196.11328125 455.203125 C193.55371501 457.66054893 190.83111057 459.92309593 188.11328125 462.203125 C187.62424316 462.6165918 187.13520508 463.03005859 186.63134766 463.45605469 C135.69331976 506.25931783 76.36936968 523.67114159 11.11328125 527.203125 C10.76658324 530.25033685 10.76658324 530.25033685 12.80859375 531.96484375 C19.82157748 537.52336622 27.20629181 542.04846404 35.11328125 546.203125 C35.98057861 546.66557617 36.84787598 547.12802734 37.74145508 547.60449219 C45.30204245 551.52669961 52.97043506 554.52893047 61.05078125 557.203125 C61.69035767 557.41590088 62.32993408 557.62867676 62.9888916 557.84790039 C82.81370515 564.39386397 103.2926623 568.58260392 124.11328125 570.203125 C125.39074219 570.33589844 126.66820312 570.46867188 127.984375 570.60546875 C161.38943469 573.59947712 196.8211218 564.16629981 223.11328125 543.203125 C223.69706543 542.73890137 224.28084961 542.27467773 224.88232422 541.79638672 C242.89908683 527.28957459 256.41419178 509.63866942 269.0078125 490.33203125 C271.69410272 486.33997473 274.52741316 482.46469688 277.36328125 478.578125 C285.75205487 467.04340915 293.74337854 455.25385871 301.17578125 443.078125 C301.53381836 442.49909424 301.89185547 441.92006348 302.26074219 441.32348633 C306.88508113 433.60324834 310.34371593 425.28374053 308.11328125 416.265625 C305.15730136 407.49089189 298.27589142 401.2911098 290.11328125 397.203125 C279.27355197 393.3452056 271.57087225 396.06669418 263.11328125 403.203125 Z " fill="#2F3082" transform="translate(956.88671875,369.796875)"/>
<path d="M0 0 C1.01890823 -0.00570007 2.03781647 -0.01140015 3.08760071 -0.01727295 C5.238159 -0.02666766 7.38873132 -0.03323476 9.53930664 -0.03710938 C12.74718171 -0.04671451 15.95438683 -0.07774991 19.16210938 -0.109375 C38.94285112 -0.21325615 58.0270037 1.89109912 77.17578125 6.890625 C77.84884308 7.06364136 78.52190491 7.23665771 79.21536255 7.41491699 C120.29623306 18.00657247 158.49787359 37.86486598 190.11328125 66.203125 C191.1508925 67.11735683 192.18864978 68.03142295 193.2265625 68.9453125 C213.4132049 86.8922453 233.67700247 110.5383148 245.11328125 135.203125 C244.78328125 135.863125 244.45328125 136.523125 244.11328125 137.203125 C243.49324219 136.75582031 242.87320313 136.30851563 242.234375 135.84765625 C234.51734501 130.57940725 227.0280003 127.76835926 218.11328125 125.203125 C217.47003906 124.99945313 216.82679688 124.79578125 216.1640625 124.5859375 C200.99787108 121.7549151 184.02207157 124.96080875 171.11328125 133.203125 C162.80380277 139.66474495 156.04218058 146.9140455 151.11328125 156.203125 C150.46818604 156.16904541 149.82309082 156.13496582 149.15844727 156.09985352 C140.08399943 155.84444302 131.47387953 157.19140028 122.56469727 158.71166992 C120.02576583 159.14489344 117.48490028 159.56480465 114.94335938 159.98242188 C113.32148948 160.25185218 111.69973983 160.52200755 110.078125 160.79296875 C109.32192368 160.91905014 108.56572235 161.04513153 107.78660583 161.17503357 C104.80020961 161.68587606 101.99281158 162.24328156 99.11328125 163.203125 C99.63596591 165.96588677 100.22197712 168.5292126 101.11328125 171.203125 C102.07699384 178.83022179 100.7118402 184.08160243 96.11328125 190.203125 C93.43436648 193.31958209 90.68284637 196.3388923 87.8515625 199.31640625 C84.49614607 202.85371401 81.29542651 206.51053323 78.11328125 210.203125 C81.80363603 212.66336152 82.83374614 212.25564723 87.125 211.62890625 C88.95828857 211.37113403 88.95828857 211.37113403 90.82861328 211.1081543 C91.47687073 211.01142426 92.12512817 210.91469421 92.79302979 210.81503296 C94.81098844 210.51410284 96.83049112 210.22731375 98.85107422 209.94458008 C101.60076834 209.55907507 104.34971428 209.16882743 107.09814453 208.77441406 C112.97235138 207.9347131 118.8533581 207.15128628 124.73828125 206.390625 C125.73174561 206.25503174 126.72520996 206.11943848 127.7487793 205.97973633 C128.66570557 205.86138428 129.58263184 205.74303223 130.52734375 205.62109375 C131.7177124 205.46290161 131.7177124 205.46290161 132.93212891 205.30151367 C135.21557428 205.19851071 136.92177749 205.60794274 139.11328125 206.203125 C138.20929665 212.75302825 137.28328223 219.29955079 136.34228516 225.84423828 C136.025093 228.06846339 135.71284864 230.29340018 135.40576172 232.51904297 C134.96207087 235.72826315 134.5003236 238.93445604 134.03515625 242.140625 C133.90268494 243.12740234 133.77021362 244.11417969 133.63372803 245.13085938 C132.62384 251.92182183 131.22732078 258.43750947 125.87890625 263.1875 C122.18178144 264.5452012 118.74288672 264.56298993 114.86328125 264.453125 C114.15042969 264.44796875 113.43757813 264.4428125 112.703125 264.4375 C109.06279978 264.38502684 105.49678419 264.15782096 101.88427734 263.70532227 C97.36595411 263.19087634 92.90030511 263.0106147 88.35546875 262.96484375 C87.54192932 262.95509521 86.72838989 262.94534668 85.89019775 262.93530273 C42.67706024 262.52532064 -1.34472834 265.86590564 -34.07421875 297.2734375 C-38.57627026 301.80339429 -42.26287122 306.95952744 -45.88671875 312.203125 C-46.87671875 311.873125 -47.86671875 311.543125 -48.88671875 311.203125 C-51.61693 311.84054958 -54.23539496 312.55675335 -56.91015625 313.37890625 C-58.11715683 313.73947617 -58.11715683 313.73947617 -59.34854126 314.10733032 C-61.98940189 314.90011002 -64.6257254 315.70681927 -67.26171875 316.515625 C-68.16519043 316.79044708 -69.06866211 317.06526917 -69.99951172 317.34841919 C-121.67496794 333.07277386 -171.50644865 353.7086277 -218.63671875 380.203125 C-219.53414795 380.70642334 -220.43157715 381.20972168 -221.35620117 381.72827148 C-229.14086401 386.18286542 -237.09430422 390.92490245 -243.38671875 397.390625 C-244.3303125 398.34001953 -244.3303125 398.34001953 -245.29296875 399.30859375 C-248.40006496 403.00207822 -249.42871906 406.20685441 -249.35546875 411.10546875 C-248.60886122 414.44653745 -246.57727698 416.3907638 -244.19921875 418.7578125 C-242.88671875 420.203125 -242.88671875 420.203125 -242.88671875 422.203125 C-250.62035608 421.69875735 -257.90206069 418.75520819 -263.26171875 413.015625 C-269.91729927 404.18563608 -271.01817109 395.06737655 -269.88671875 384.203125 C-268.98380313 380.28203639 -267.62680485 376.82423876 -265.88671875 373.203125 C-265.46261719 372.30078125 -265.03851562 371.3984375 -264.6015625 370.46875 C-255.34321028 352.20993837 -238.61334805 337.52153448 -222.44921875 325.3984375 C-220.0938432 323.5965752 -217.84084994 321.67724167 -215.57421875 319.765625 C-172.53281954 284.4528274 -118.45367093 257.79325013 -65.88671875 240.203125 C-65.15694824 239.95852539 -64.42717773 239.71392578 -63.67529297 239.46191406 C-42.13686299 232.30879264 -20.32060552 227.3219918 1.95881653 223.13635254 C3.41444696 222.86119044 4.86937975 222.58230784 6.3235321 222.29943848 C9.21411438 221.737568 12.08969091 221.20626123 15.00927734 220.81811523 C18.00542961 220.37143974 20.42020366 219.91460492 22.58447266 217.69287109 C23.89543279 215.77352069 24.95464014 213.84661079 25.98828125 211.765625 C26.7111931 210.41080616 27.43764353 209.05786829 28.16796875 207.70703125 C28.47202637 207.10705322 28.77608398 206.5070752 29.08935547 205.88891602 C30.21777239 204.03109083 31.57360234 202.72618867 33.11328125 201.203125 C33.92774234 199.19739859 33.92774234 199.19739859 34.11328125 197.203125 C33.78328125 196.543125 33.45328125 195.883125 33.11328125 195.203125 C27.61351876 193.5873047 22.58176915 194.81401512 17.05078125 195.765625 C15.98384033 195.94907471 14.91689941 196.13252441 13.81762695 196.3215332 C-12.20393058 201.01876787 -35.15328825 210.85366027 -55.21948242 228.25488281 C-63.27014314 235.20689106 -69.11974542 239.58695967 -79.83984375 239.484375 C-86.59990736 238.86036913 -90.26712002 234.91652269 -94.88671875 230.203125 C-112.17078414 238.51039481 -128.92310145 247.63616596 -145.1484375 257.87109375 C-145.75292725 258.25177002 -146.35741699 258.63244629 -146.98022461 259.0246582 C-148.49291454 259.98667103 -149.99509783 260.96515396 -151.49609375 261.9453125 C-153.88671875 263.203125 -153.88671875 263.203125 -157.88671875 263.203125 C-168.35674547 246.02414912 -173.72616018 229.1083245 -169.00390625 208.73828125 C-165.79939123 198.45624466 -160.39845695 189.59142957 -154.07421875 180.953125 C-151.01593593 176.6383919 -149.40787172 173.50151355 -148.88671875 168.203125 C-149.79088614 164.39270529 -150.67153964 162.12180041 -153.83984375 159.7265625 C-155.25042227 158.85890449 -156.68529683 158.02916277 -158.14453125 157.24609375 C-159.88671875 156.203125 -159.88671875 156.203125 -160.88671875 154.203125 C-161.10746716 152.46579694 -161.27802513 150.72194093 -161.421875 148.9765625 C-161.50888672 147.9453125 -161.59589844 146.9140625 -161.68554688 145.8515625 C-161.77255859 144.77132812 -161.85957031 143.69109375 -161.94921875 142.578125 C-162.08553711 140.94617188 -162.08553711 140.94617188 -162.22460938 139.28125 C-162.44897826 136.58882343 -162.66951989 133.89613791 -162.88671875 131.203125 C-163.87671875 131.203125 -164.86671875 131.203125 -165.88671875 131.203125 C-197.28612728 165.37306957 -211.22139383 223.02338725 -209.76318359 268.01464844 C-209.44090504 273.84887148 -208.9628463 279.65772914 -208.39453125 285.47265625 C-208.30896973 286.45129639 -208.2234082 287.42993652 -208.13525391 288.43823242 C-207.97645525 290.20482843 -207.78642887 291.96907596 -207.55615234 293.7277832 C-207.26712649 297.07900633 -207.15867245 299.23570469 -209.22998047 301.98803711 C-211.15041798 303.75029956 -213.13567566 305.25831678 -215.26171875 306.765625 C-215.99181152 307.31863281 -216.7219043 307.87164063 -217.47412109 308.44140625 C-218.93087338 309.54370897 -220.39578018 310.63532854 -221.86914062 311.71533203 C-224.47692914 313.63835517 -226.99584477 315.66187141 -229.51171875 317.703125 C-230.27871094 318.31027344 -231.04570313 318.91742187 -231.8359375 319.54296875 C-233.71798776 321.06653325 -235.5185868 322.65329671 -237.32421875 324.265625 C-238.16984375 324.905 -239.01546875 325.544375 -239.88671875 326.203125 C-240.87671875 325.873125 -241.86671875 325.543125 -242.88671875 325.203125 C-258.17733082 254.99737188 -248.32564341 181.15630807 -209.02783203 119.94750977 C-207.05119565 116.98014955 -204.98734473 114.08361932 -202.88671875 111.203125 C-202.42442871 110.56117188 -201.96213867 109.91921875 -201.48583984 109.2578125 C-158.87269648 50.29658843 -95.76859385 13.2190211 -24.16381836 1.64868164 C-16.09342826 0.55142604 -8.14360142 0.03650578 0 0 Z M-128.44921875 90.203125 C-129.00391846 90.647771 -129.55861816 91.09241699 -130.13012695 91.55053711 C-131.83004125 92.94039796 -131.83004125 92.94039796 -133.88671875 95.203125 C-134.27966036 99.06994384 -134.27966036 99.06994384 -132.453125 101.16796875 C-123.06684005 110.40787888 -114.00979294 113.31490703 -101.30078125 115.9453125 C-99.54894531 116.32042969 -99.54894531 116.32042969 -97.76171875 116.703125 C-96.68664062 116.9196875 -95.6115625 117.13625 -94.50390625 117.359375 C-91.88671875 118.203125 -91.88671875 118.203125 -89.88671875 121.203125 C-89.5242839 126.73025648 -90.09626131 131.68354755 -91.01171875 137.140625 C-92.15621411 144.71881928 -91.80603194 150.57775564 -88.19921875 157.390625 C-87.43609375 158.31875 -86.67296875 159.246875 -85.88671875 160.203125 C-85.47292969 160.76644531 -85.05914063 161.32976562 -84.6328125 161.91015625 C-79.47303235 168.09380923 -72.33779081 170.03723667 -64.95361328 172.45068359 C-62.88671875 173.203125 -62.88671875 173.203125 -59.3203125 175.00390625 C-53.14456028 177.89512433 -49.19649918 178.90837952 -42.74609375 176.75390625 C-38.80977988 175.23109617 -34.95881562 173.53099049 -31.09765625 171.828125 C-24.92895379 169.1272442 -18.70144897 167.18061114 -12.19921875 165.453125 C-11.13856201 165.17082031 -10.07790527 164.88851562 -8.98510742 164.59765625 C0.6766806 162.13653258 10.45194149 160.39719797 20.3034668 158.88769531 C21.9882312 158.61844238 21.9882312 158.61844238 23.70703125 158.34375 C24.70412109 158.19454102 25.70121094 158.04533203 26.72851562 157.89160156 C29.46115247 157.38065961 29.46115247 157.38065961 31.11328125 154.203125 C30.57058594 153.501875 30.02789063 152.800625 29.46875 152.078125 C23.78130241 144.53585217 19.03470287 138.09009347 20.11328125 128.203125 C21.34240026 123.74756857 22.86307319 120.98732222 26.55078125 118.265625 C31.89385883 115.32448138 37.18397288 115.14459388 43.11328125 116.203125 C50.05906897 118.9003214 55.08203898 123.78598611 60.10546875 129.15234375 C61.99321061 131.08048476 63.91317175 132.649236 66.11328125 134.203125 C66.11328125 133.543125 66.11328125 132.883125 66.11328125 132.203125 C66.79390625 131.996875 67.47453125 131.790625 68.17578125 131.578125 C72.04245979 129.76819037 75.17745702 127.30468125 78.11328125 124.203125 C80.35428108 117.48012552 78.71734409 111.92527403 76.30078125 105.578125 C75.99237305 104.76053711 75.68396484 103.94294922 75.36621094 103.10058594 C67.39703239 82.70227151 55.86365155 65.5591999 41.62109375 49.10546875 C39.11328125 46.203125 39.11328125 46.203125 36.83984375 42.9296875 C33.15080205 39.2406458 30.43235439 38.98261938 25.36328125 38.640625 C24.46714111 38.569646 23.57100098 38.49866699 22.64770508 38.42553711 C-31.75905843 35.31825915 -86.73940146 56.03897703 -128.44921875 90.203125 Z " fill="#62BCF4" transform="translate(956.88671875,369.796875)"/>
<path d="M0 0 C1.6510247 -0.00642769 1.6510247 -0.00642769 3.33540344 -0.01298523 C5.6505973 -0.0186924 7.96580908 -0.01925569 10.28100586 -0.01489258 C13.77424636 -0.01174268 17.26663002 -0.03520399 20.75976562 -0.06054688 C46.02889754 -0.13335723 67.63568611 4.01254636 86.7109375 21.7109375 C98.99595989 34.67026643 109.03471541 53.33127436 110.33740234 71.41137695 C110.05509958 76.3104678 108.75905629 80.47125801 107.2265625 85.109375 C106.92767624 86.03492691 106.62878998 86.96047882 106.32084656 87.91407776 C105.68781238 89.86470429 105.04958929 91.8136536 104.40649414 93.76098633 C103.43162465 96.72054159 102.47944167 99.68672471 101.52929688 102.65429688 C100.90890832 104.55643246 100.28720594 106.45814014 99.6640625 108.359375 C99.38363602 109.23669785 99.10320953 110.11402069 98.81428528 111.01792908 C96.02662943 119.36053668 92.49830954 125.75318794 85.42578125 131.17578125 C84.47316406 131.91570312 83.52054688 132.655625 82.5390625 133.41796875 C81.73855469 134.03929687 80.93804688 134.660625 80.11328125 135.30078125 C79.45328125 135.96078125 78.79328125 136.62078125 78.11328125 137.30078125 C78.47696458 142.6836049 80.52397215 147.63480363 82.3671875 152.65625 C82.69990158 153.5749437 83.03261566 154.49363739 83.37541199 155.44017029 C84.47023073 158.45816535 85.57277848 161.47326858 86.67578125 164.48828125 C87.44003696 166.58828492 88.20403108 168.6883838 88.96777344 170.78857422 C95.47211007 188.64787016 102.07245161 206.47189336 108.72265625 224.27734375 C109.01663803 225.06593277 109.31061981 225.85452179 109.61351013 226.66700745 C110.93718823 230.2067375 112.27703967 233.73743573 113.67382812 237.24902344 C114.13337891 238.40821289 114.59292969 239.56740234 115.06640625 240.76171875 C115.46504883 241.7470459 115.86369141 242.73237305 116.27441406 243.74755859 C117.11328125 246.30078125 117.11328125 246.30078125 117.11328125 250.30078125 C104.99454629 254.89143481 92.79477717 259.13844629 80.45581055 263.10327148 C75.62037759 264.68097759 70.99887577 266.24236813 66.5 268.6328125 C63.11328125 270.30078125 63.11328125 270.30078125 60.11328125 269.30078125 C59.00076678 267.0889874 58.0856801 264.96842226 57.20703125 262.6640625 C56.63216095 261.22275463 56.05669219 259.78168536 55.48071289 258.34082031 C55.02585007 257.18700867 55.02585007 257.18700867 54.5617981 256.0098877 C47.19328541 237.39195269 38.56567944 219.53699182 29.40823364 201.74320984 C27.51774937 198.06938355 25.65498197 194.38530717 23.83935547 190.67382812 C23.4746666 189.93118713 23.10997772 189.18854614 22.73423767 188.42340088 C22.04179301 187.00933107 21.3541788 185.59288247 20.6721344 184.17376709 C19.09386143 180.60116454 19.09386143 180.60116454 16.11328125 178.30078125 C13.6299867 178.95680237 11.23408071 179.67870177 8.80078125 180.48828125 C7.47154278 180.91985218 6.14210826 181.35081966 4.8125 181.78125 C4.13531418 182.00233932 3.45812836 182.22342865 2.76042175 182.45121765 C-0.37877117 183.45869876 -3.52866151 184.42831673 -6.68041992 185.39575195 C-7.84457932 185.75329056 -9.00873871 186.11082916 -10.20817566 186.47920227 C-11.09209488 186.75032333 -11.9760141 187.0214444 -12.88671875 187.30078125 C-12.90955429 187.98157242 -12.93238983 188.66236359 -12.95591736 189.36378479 C-13.1738911 195.84901826 -13.3942716 202.33416526 -13.61720943 208.81923008 C-13.73168222 212.15150012 -13.84502916 215.48379928 -13.95678711 218.81616211 C-15.29632303 258.71038553 -15.29632303 258.71038553 -16.88671875 260.30078125 C-19.37393134 260.49592414 -21.84046443 260.63160057 -24.33203125 260.73046875 C-25.90105968 260.80430563 -27.47006952 260.87853847 -29.0390625 260.953125 C-31.50227989 261.06515556 -33.96550455 261.17388638 -36.42919922 261.27490234 C-48.45675495 261.77840427 -59.91649336 262.87834158 -71.49658203 266.39794922 C-74.53741963 267.20775891 -76.78453608 267.37728385 -79.88671875 267.30078125 C-82.18109289 256.51635798 -82.44351079 245.73302266 -82.81640625 234.7578125 C-82.89133327 232.73283282 -82.96712877 230.70788511 -83.04373169 228.68296814 C-83.20535469 224.38857907 -83.36320707 220.0940767 -83.51806641 215.79943848 C-83.92583223 204.53980858 -84.36826973 193.28152391 -84.81640625 182.0234375 C-84.86082603 180.90550182 -84.90524582 179.78756615 -84.95101166 178.63575363 C-85.71879855 159.42643922 -86.6672223 140.23667127 -87.88671875 121.05078125 C-87.96770813 119.77439789 -88.04869751 118.49801453 -88.13214111 117.18295288 C-89.01780473 103.38046167 -90.00290313 89.58578713 -91.02734375 75.79296875 C-91.1207605 74.53061401 -91.21417725 73.26825928 -91.3104248 71.96765137 C-91.74997055 66.04732155 -92.19822604 60.1279741 -92.66796875 54.20996094 C-93.62634726 41.8760666 -94.11801938 29.67169356 -93.88671875 17.30078125 C-86.69722975 14.24855993 -79.36419571 12.86692799 -71.7109375 11.453125 C-70.33613157 11.19377618 -68.96144378 10.93380042 -67.58686829 10.67323303 C-63.98380766 9.99200138 -60.37918834 9.31940323 -56.77416992 8.64862061 C-53.13424015 7.96969352 -49.4959194 7.28225636 -45.85742188 6.59570312 C-39.31142988 5.36220808 -32.76541542 4.12886804 -26.2141571 2.92359924 C-24.12427797 2.53242315 -22.03709636 2.12622868 -19.954422 1.698349 C-13.25650427 0.35555257 -6.8236739 -0.00603526 0 0 Z M6.11328125 63.23828125 C3.334683 63.4251923 0.55601731 63.61108741 -2.22265625 63.796875 C-3.23167496 63.86477737 -3.23167496 63.86477737 -4.26107788 63.93405151 C-7.93988115 64.17952473 -11.6184058 64.4018909 -15.30078125 64.5859375 C-16.40292969 64.64309937 -16.40292969 64.64309937 -17.52734375 64.70141602 C-19.34736897 64.79255163 -21.1678134 64.87521247 -22.98828125 64.95703125 C-25.98726157 65.31270547 -28.22285212 65.87748789 -30.88671875 67.30078125 C-32.27433006 71.46361519 -31.29013696 75.03948412 -30.55859375 79.26171875 C-30.40892151 80.16209869 -30.25924927 81.06247864 -30.1050415 81.99014282 C-29.62242689 84.88654782 -29.13008218 87.78118953 -28.63671875 90.67578125 C-28.0029625 94.43300424 -27.37388921 98.19099574 -26.74609375 101.94921875 C-26.58919067 102.88030457 -26.4322876 103.81139038 -26.27062988 104.77069092 C-25.00356756 112.37060611 -23.90928721 119.98969729 -22.93841553 127.63314819 C-22.82886536 128.4511087 -22.71931519 129.26906921 -22.60644531 130.11181641 C-22.51510315 130.82665192 -22.42376099 131.54148743 -22.32965088 132.27798462 C-21.83851392 134.5209246 -20.98882477 136.29488068 -19.88671875 138.30078125 C-15.46277094 137.68193033 -11.8668531 135.96207699 -7.94921875 133.92578125 C-6.53403821 133.20406608 -5.11866211 132.48273431 -3.703125 131.76171875 C-2.93758301 131.36952148 -2.17204102 130.97732422 -1.38330078 130.57324219 C3.26738166 128.20287676 7.94236615 125.88094475 12.61328125 123.55078125 C15.30336296 122.20609414 17.9931493 120.86144959 20.67578125 119.50195312 C22.19910264 118.75127792 23.73934746 118.03302615 25.30078125 117.36523438 C34.86769411 113.16131209 39.43265099 104.76045984 43.80078125 95.67578125 C44.27966797 94.76054688 44.75855469 93.8453125 45.25195312 92.90234375 C46.48522776 90.35859995 47.49051539 88.05824361 48.11328125 85.30078125 C46.93948712 81.95077582 46.93948712 81.95077582 44.11328125 79.30078125 C43.05468647 78.03842256 42.00024896 76.77257006 40.94921875 75.50390625 C39.79910521 74.18311376 38.64539348 72.8654467 37.48828125 71.55078125 C36.90304687 70.87917969 36.3178125 70.20757813 35.71484375 69.515625 C33.56185891 67.05154373 31.42765764 64.61515764 29.11328125 62.30078125 C21.46284387 61.86013106 13.74771642 62.7186209 6.11328125 63.23828125 Z " fill="#2F3082" transform="translate(1303.88671875,1028.69921875)"/>
<path d="M0 0 C7.81751204 -0.5175852 14.19596273 2.76637938 21.15356445 6.00415039 C22.35432617 6.53459961 23.55508789 7.06504883 24.79223633 7.61157227 C32.50082542 11.11157233 37.69583781 14.54524336 42.4621582 21.67993164 C43.00549805 22.48495117 43.54883789 23.2899707 44.10864258 24.11938477 C44.6597168 24.94760742 45.21079102 25.77583008 45.77856445 26.62915039 C46.87961407 28.27229511 47.98246539 29.91423404 49.0871582 31.55493164 C49.62711426 32.36913574 50.16707031 33.18333984 50.72338867 34.0222168 C52.25964479 36.29596154 52.25964479 36.29596154 53.94702148 38.10717773 C59.75538456 44.65641276 60.77454815 52.98016813 62.34106445 61.31665039 C62.48727234 62.07796265 62.63348022 62.8392749 62.78411865 63.62365723 C63.86386019 69.29976414 64.83687957 74.99120009 65.77856445 80.69165039 C65.92691742 81.58096252 66.07527039 82.47027466 66.2281189 83.38653564 C80.59886447 170.05587035 80.59886447 170.05587035 72.65356445 193.50415039 C72.31470215 194.50937744 71.97583984 195.51460449 71.62670898 196.55029297 C68.70763484 204.55427179 65.06775385 207.66842172 57.57476234 211.38012314 C53.95028607 212.89976499 50.31433471 213.41934035 46.4375 213.93237305 C45.58593323 214.05654099 44.73436646 214.18070892 43.85699463 214.30863953 C41.0656206 214.71241943 38.27192307 215.09658402 35.4777832 215.48071289 C33.5199844 215.76039239 31.56237051 216.04136911 29.60493469 216.32357788 C24.46359326 217.06156433 19.32009409 217.78321797 14.17590332 218.5010376 C7.94866213 219.37282238 1.72398739 220.26270356 -4.50091076 221.15103722 C-9.34936724 221.84275559 -14.19817458 222.53150228 -19.04841614 223.21060181 C-20.82139274 223.45993154 -22.59431841 223.70962374 -24.3671875 223.9597168 C-25.20147939 224.07730158 -26.03577127 224.19488636 -26.89534473 224.31603432 C-31.28262963 224.94406801 -35.63545509 225.65485453 -39.98779297 226.49780273 C-46.68260091 227.74847079 -51.61704338 227.73633462 -57.8972168 224.86743164 C-59.04770508 224.34858398 -60.19819336 223.82973633 -61.38354492 223.29516602 C-62.56754883 222.74538086 -63.75155273 222.1955957 -64.97143555 221.62915039 C-66.14383789 221.09870117 -67.31624023 220.56825195 -68.52416992 220.02172852 C-70.83451855 218.97039734 -73.13821552 217.90430958 -75.43457031 216.82275391 C-77.46272861 215.87539959 -79.50616282 214.95946295 -81.56884766 214.08984375 C-87.87342507 211.30733097 -90.74144013 208.50187822 -93.59643555 202.25415039 C-93.95543945 201.58577148 -94.31444336 200.91739258 -94.68432617 200.22875977 C-97.31320698 194.80217094 -98.26636772 189.31228886 -99.10961914 183.40478516 C-99.23711957 182.53129677 -99.36462 181.65780838 -99.49598408 180.75785065 C-100.99747653 170.2612124 -102.18664732 159.72927186 -103.3581543 149.19165039 C-103.60047366 147.0261213 -103.84280901 144.86059399 -104.0851593 142.69506836 C-104.58803704 138.1909957 -105.08745545 133.68655377 -105.58496094 129.18188477 C-106.21696965 123.46613307 -106.86271567 117.75202231 -107.51170635 112.03817749 C-108.01590012 107.57748257 -108.51010971 103.11571989 -109.00174904 98.65362549 C-109.2353344 96.54852085 -109.47244953 94.4438042 -109.71347618 92.33953857 C-110.89127025 82.02657798 -111.8600252 71.79829 -111.89648438 61.41040039 C-111.90039783 60.61763702 -111.90431128 59.82487366 -111.90834332 59.00808716 C-111.8024871 48.02143321 -109.95027735 37.1042867 -102.09228516 28.91210938 C-99.60099517 26.34042369 -99.60099517 26.34042369 -97.42285156 23.40136719 C-88.52412482 12.36666227 -77.52460206 11.30204207 -64.09643555 9.37915039 C-61.86207886 9.02381278 -59.62835395 8.66448081 -57.39526367 8.30126953 C-51.85488795 7.41252004 -46.30776164 6.58180263 -40.75531006 5.77233887 C-36.98602807 5.21761967 -33.22192713 4.63251518 -29.45777893 4.04414368 C-19.65414628 2.51703673 -9.85196664 1.17326239 0 0 Z M-14.1550293 57.23852539 C-15.01773941 57.53978333 -15.88044952 57.84104126 -16.76930237 58.15142822 C-18.60478028 58.79294725 -20.43997161 59.43528669 -22.27490234 60.07836914 C-25.05234005 61.05120533 -27.83115101 62.02003742 -30.61010742 62.98852539 C-32.3960007 63.61327963 -34.18181052 64.23827253 -35.9675293 64.86352539 C-36.78773056 65.14911316 -37.60793182 65.43470093 -38.45298767 65.72894287 C-40.86117454 66.57510824 -43.25965152 67.44560905 -45.65893555 68.31665039 C-46.55726105 68.62332642 -47.45558655 68.93000244 -48.38113403 69.24597168 C-53.60452226 71.11697041 -53.60452226 71.11697041 -57.79125977 74.62426758 C-58.91001341 78.09574062 -58.82291831 80.75406496 -58.54174805 84.39477539 C-58.49005463 85.09844238 -58.43836121 85.80210938 -58.38510132 86.52709961 C-58.204502 88.87568521 -57.9959069 91.22070048 -57.78393555 93.56665039 C-57.7156958 94.37823608 -57.64745605 95.18982178 -57.57714844 96.02600098 C-56.28776074 111.2719397 -54.30513122 126.42047074 -52.15893555 141.56665039 C-52.00990784 142.62903931 -51.86088013 143.69142822 -51.70733643 144.78601074 C-51.27430026 147.84468028 -50.82868922 150.90120833 -50.37768555 153.95727539 C-50.24953461 154.85696045 -50.12138367 155.75664551 -49.98934937 156.68359375 C-48.7018031 167.33797766 -48.7018031 167.33797766 -43.65893555 176.31665039 C-35.4331567 177.08268744 -27.45125553 175.15787347 -19.4230957 173.5456543 C-17.06219633 173.07231641 -14.69885366 172.61335361 -12.3347168 172.15649414 C3.5492043 170.23236606 3.5492043 170.23236606 17.34106445 164.31665039 C17.94100592 156.36296567 16.87216214 148.57086615 15.6965332 140.72290039 C15.52607986 139.53732544 15.35562653 138.35175049 15.18000793 137.13024902 C14.63680879 133.35795119 14.08351821 129.58723538 13.52856445 125.81665039 C12.80811074 120.89036597 12.09332912 115.96330366 11.3840332 111.03540039 C11.20871063 109.82287598 11.03338806 108.61035156 10.85275269 107.36108398 C9.4627256 97.57831016 8.33499237 87.7771825 7.3704071 77.94348145 C6.54861637 69.9233533 5.82228627 64.20404326 -0.22143555 58.44165039 C-1.02709961 57.66047852 -1.83276367 56.87930664 -2.6628418 56.07446289 C-6.31541876 52.85790783 -9.97150608 55.77310508 -14.1550293 57.23852539 Z " fill="#2F3082" transform="translate(887.658935546875,1087.683349609375)"/>
<path d="M0 0 C4.89807961 9.2043604 9.72575666 18.4433427 14.47265625 27.7265625 C14.86825241 28.50010574 15.26384857 29.27364899 15.6714325 30.07063293 C16.07352432 30.85693588 16.47561615 31.64323883 16.88989258 32.45336914 C23.28435856 44.95789557 29.69227756 57.43526881 36.49462891 69.72436523 C41.06768907 78.02824717 45.41351244 86.44597446 49.75 94.875 C50.102901 95.56033813 50.455802 96.24567627 50.81939697 96.95178223 C55.64172315 106.32362692 60.38948899 115.73117913 65.08581543 125.16674805 C65.92644291 126.85249293 66.77206567 128.53574439 67.61816406 130.21875 C75.87435691 146.67817744 83.30940675 163.42619257 90.5 180.375 C90.92865356 181.38515167 91.35730713 182.39530334 91.7989502 183.43606567 C94.55709704 189.94726894 97.29070403 196.46832318 100 203 C100.32758301 203.78814087 100.65516602 204.57628174 100.99267578 205.38830566 C101.86646654 207.49836632 102.732126 209.61150943 103.59375 211.7265625 C104.06490234 212.87979004 104.53605469 214.03301758 105.02148438 215.22119141 C106 218 106 218 106 221 C87.01412408 228.78290376 87.01412408 228.78290376 77.75 232 C76.63109375 232.391875 75.5121875 232.78375 74.359375 233.1875 C70.08253369 234.22189883 67.40087872 234.63996842 63 234 C60.58628794 231.98524861 59.11027075 229.55179002 57.5 226.875 C57.03279541 226.14651855 56.56559082 225.41803711 56.08422852 224.66748047 C54.68728208 222.46464946 53.3366804 220.23981539 52 218 C51.63374512 217.39220703 51.26749023 216.78441406 50.89013672 216.15820312 C48.87476847 212.78605846 46.94840286 209.3691464 45.05957031 205.92480469 C43.87244688 203.7682883 42.66758443 201.62221324 41.4609375 199.4765625 C37.4439597 192.31666808 33.4451174 185.17789568 29.9375 177.75 C29.01136225 175.81843591 29.01136225 175.81843591 27 174 C24.59985611 174.43972102 22.37957563 174.98402593 20.04296875 175.65625 C13.97525784 177.29077715 7.92221721 178.66367803 1.73828125 179.78125 C0.96475311 179.92361084 0.19122498 180.06597168 -0.60574341 180.21264648 C-3.77568748 180.79441885 -6.94651265 181.36989788 -10.12084961 181.92724609 C-12.48292697 182.34451709 -14.84101259 182.78020148 -17.19921875 183.21875 C-17.91067551 183.3386731 -18.62213226 183.45859619 -19.35514832 183.58215332 C-23.88980864 184.44288686 -26.80529976 185.63927997 -30 189 C-33.74819523 197.14396936 -35.04337715 206.53023086 -36.5625 215.3125 C-36.95936208 217.53780918 -37.3565007 219.76306906 -37.75390625 221.98828125 C-38.37072266 225.45908203 -38.37072266 225.45908203 -39 229 C-39.99 234.28 -40.98 239.56 -42 245 C-59.82 245 -77.64 245 -96 245 C-95.39318789 236.50463051 -94.76058966 228.07540954 -93.8359375 219.61914062 C-93.72345169 218.57242187 -93.61096588 217.52570313 -93.49507141 216.44726562 C-93.12510602 213.016549 -92.75072129 209.58634084 -92.375 206.15625 C-92.17809067 204.35694283 -92.17809067 204.35694283 -91.97720337 202.52128601 C-91.27674758 196.13031525 -90.5721152 189.73981839 -89.86474609 183.34960938 C-89.29432454 178.18901065 -88.73222398 173.02762117 -88.17822266 167.86523438 C-84.42256768 132.90626131 -79.62980088 98.29909338 -73.47447205 63.6811142 C-72.79965877 59.86792546 -72.14342988 56.05163731 -71.48925781 52.23486328 C-70.56580105 46.87029755 -69.61755538 41.51108303 -68.640625 36.15600586 C-68.28050131 34.17003963 -67.92649649 32.18295841 -67.57714844 30.19506836 C-67.0446526 27.16561786 -66.49703144 24.13928182 -65.9453125 21.11328125 C-65.79216583 20.22635086 -65.63901917 19.33942047 -65.48123169 18.4256134 C-65.33032074 17.6191185 -65.17940979 16.8126236 -65.02392578 15.98168945 C-64.83481125 14.93027519 -64.83481125 14.93027519 -64.64187622 13.85762024 C-63.85525792 11.58110956 -62.85013622 10.51923266 -61 9 C-58.70117188 8.26391602 -58.70117188 8.26391602 -55.96875 7.75390625 C-54.43033447 7.46036255 -54.43033447 7.46036255 -52.86083984 7.16088867 C-51.7517627 6.96342041 -50.64268555 6.76595215 -49.5 6.5625 C-48.35611816 6.35149658 -47.21223633 6.14049316 -46.03369141 5.9230957 C-37.50207905 4.3784896 -28.94691655 2.98855222 -20.375 1.6875 C-19.25673828 1.51613525 -18.13847656 1.34477051 -16.98632812 1.16821289 C-11.25714035 0.3319082 -5.78937927 -0.18924121 0 0 Z M-15 73 C-17.33705885 79.86535021 -17.94032557 86.88837997 -18.7265625 94.0703125 C-18.88020308 95.43843479 -19.03429395 96.80650659 -19.18881226 98.17453003 C-19.51010124 101.03018094 -19.82741711 103.88623465 -20.14160156 106.74267578 C-20.54355336 110.39602307 -20.95321374 114.04845308 -21.36556435 117.70063972 C-21.6835401 120.52113815 -21.99857029 123.34195909 -22.312603 126.16289902 C-22.53536322 128.16211242 -22.75968807 130.16115128 -22.98403931 132.16018677 C-23.11772919 133.37850189 -23.25141907 134.59681702 -23.38916016 135.85205078 C-23.50748199 136.92125763 -23.62580383 137.99046448 -23.74771118 139.09207153 C-24.12679825 143.046721 -24.12679825 143.046721 -24 147 C-21.28975783 149.25985874 -21.28975783 149.25985874 -18.78271484 148.79980469 C-17.93402832 148.59258789 -17.0853418 148.38537109 -16.2109375 148.171875 C-15.26863281 147.94886719 -14.32632812 147.72585938 -13.35546875 147.49609375 C-12.37191406 147.24988281 -11.38835937 147.00367188 -10.375 146.75 C-8.44533552 146.2863625 -6.51564827 145.82281978 -4.5859375 145.359375 C-3.18166504 145.01229492 -3.18166504 145.01229492 -1.74902344 144.65820312 C1.56292471 143.86521803 4.89279776 143.18454479 8.23583984 142.53613281 C10.23373915 142.08022605 10.23373915 142.08022605 12 140 C11.61420124 136.10678731 10.17574509 132.81526991 8.59375 129.265625 C8.10124756 128.14567139 7.60874512 127.02571777 7.10131836 125.87182617 C6.5728833 124.67662354 6.04444824 123.4814209 5.5 122.25 C0.45137578 110.71665378 -4.01901433 99.06180618 -8.16015625 87.16796875 C-10.57029665 79.49427865 -10.57029665 79.49427865 -15 73 Z " fill="#2F3082" transform="translate(1089,1056)"/>
<path d="M0 0 C8.79619751 23.39887372 8.79619751 23.39887372 11 32 C11.19464844 32.70511719 11.38929688 33.41023438 11.58984375 34.13671875 C11.875 35.9375 11.875 35.9375 11 39 C8.8932976 40.70137486 6.68178834 41.88965253 4.2890625 43.16015625 C0.29913842 45.39204965 -3.35058856 47.9636535 -7.0625 50.625 C-7.7829248 51.13844971 -8.50334961 51.65189941 -9.24560547 52.1809082 C-10.738694 53.24522158 -12.23103417 54.31058552 -13.72265625 55.37695312 C-16.00691627 57.00492918 -18.29873189 58.62160674 -20.59375 60.234375 C-21.34261475 60.7607959 -22.09147949 61.2872168 -22.86303711 61.82958984 C-24.28011874 62.82527491 -25.69757076 63.82043315 -27.11547852 64.81494141 C-28.42337785 65.7360608 -29.72767608 66.66231758 -31.02807617 67.59399414 C-32.40774462 68.57771465 -33.79969176 69.54433696 -35.20043945 70.49780273 C-39.29593202 73.37410754 -41.86615661 75.24774087 -43.0625 80.3125 C-43.48982422 81.97925781 -43.48982422 81.97925781 -43.92578125 83.6796875 C-44.08385254 84.33420898 -44.24192383 84.98873047 -44.40478516 85.66308594 C-45.13447834 88.5279847 -45.96194863 91.35816122 -46.79296875 94.1953125 C-47.44576934 96.44257568 -48.09810863 98.68997291 -48.75 100.9375 C-49.068479 102.02780518 -49.38695801 103.11811035 -49.71508789 104.24145508 C-50.01020264 105.28454834 -50.30531738 106.3276416 -50.609375 107.40234375 C-50.87717773 108.33554443 -51.14498047 109.26874512 -51.42089844 110.23022461 C-52.0658522 113.31496339 -52.35024211 115.8607929 -52 119 C-50.5205626 120.78370337 -50.5205626 120.78370337 -48.328125 121.97265625 C-47.12941772 122.72289062 -47.12941772 122.72289062 -45.90649414 123.48828125 C-45.02985107 124.00777344 -44.15320801 124.52726562 -43.25 125.0625 C-41.39933877 126.20898868 -39.54908936 127.35614234 -37.69921875 128.50390625 C-36.74837402 129.08414551 -35.7975293 129.66438477 -34.81787109 130.26220703 C-31.33756178 132.40852844 -27.92096976 134.64265568 -24.50610352 136.89111328 C2.01729165 154.69947346 2.01729165 154.69947346 30 170 C30.15437715 176.03848811 29.59145518 181.65354662 28.609375 187.60546875 C28.39238197 188.97057083 28.39238197 188.97057083 28.17100525 190.36325073 C27.70264408 193.30554326 27.22631784 196.24648615 26.75 199.1875 C26.10157205 203.24157292 25.4580168 207.29640545 24.81640625 211.3515625 C24.65787674 212.35149734 24.49934723 213.35143219 24.33601379 214.38166809 C23.39831622 220.33771117 22.51446189 226.29729256 21.71484375 232.2734375 C21.57790604 233.29613487 21.57790604 233.29613487 21.4382019 234.3394928 C21.02770132 237.43151672 20.62976029 240.52476662 20.24316406 243.61987305 C20.03578613 245.21762573 20.03578613 245.21762573 19.82421875 246.84765625 C19.71166748 247.75523682 19.59911621 248.66281738 19.4831543 249.59790039 C18.78224984 253.08258908 18.07008026 255.24661274 15.10595703 257.33349609 C14.33106934 257.72617676 13.55618164 258.11885742 12.7578125 258.5234375 C11.87037354 258.98081299 10.98293457 259.43818848 10.06860352 259.90942383 C9.09721436 260.39306396 8.1258252 260.8767041 7.125 261.375 C5.0325229 262.42832745 2.94007636 263.48171561 0.84765625 264.53515625 C-0.26335449 265.09090332 -1.37436523 265.64665039 -2.51904297 266.21923828 C-5.50150679 267.74498461 -8.44293193 269.31901503 -11.37585449 270.93621826 C-13.79260878 272.26386506 -16.22507989 273.56102565 -18.65997314 274.8550415 C-20.38722451 275.78541929 -22.09515913 276.75138312 -23.80224609 277.71826172 C-32.8568257 282.46202485 -40.18200258 282.49135258 -50 281 C-50.87067108 280.87418549 -51.74134216 280.74837097 -52.63839722 280.6187439 C-58.6459843 279.73905427 -64.63258559 278.75554307 -70.61621094 277.72631836 C-73.72971153 277.19098836 -76.84504328 276.66768225 -79.9609375 276.14648438 C-85.00031053 275.29843535 -90.03365865 274.42027136 -95.06420898 273.52142334 C-97.03336231 273.1716837 -99.00360811 272.82804408 -100.97485352 272.49029541 C-103.78352561 272.00692864 -106.58714385 271.50078756 -109.390625 270.98828125 C-110.23429626 270.84722458 -111.07796753 270.70616791 -111.94720459 270.56083679 C-117.59698263 269.49034437 -117.59698263 269.49034437 -119.49853516 267.17675781 C-120.03973774 264.82750648 -120.42069806 262.58701352 -120.6328125 260.18359375 C-120.71660156 259.25353516 -120.80039062 258.32347656 -120.88671875 257.36523438 C-120.96535156 256.39908203 -121.04398438 255.43292969 -121.125 254.4375 C-121.21136719 253.49841797 -121.29773438 252.55933594 -121.38671875 251.59179688 C-121.9526036 245.04819186 -122.10078128 238.56598036 -122 232 C-109.08641699 229.33798947 -95.87203703 228.76030129 -82.75390625 227.75 C-66.29015368 226.56316196 -66.29015368 226.56316196 -50 224 C-49.5934432 221.6622984 -49.28164132 219.35401701 -49 217 C-48.86207031 216.21625 -48.72414063 215.4325 -48.58203125 214.625 C-48.13494671 210.47812888 -48.19154279 208.01913568 -50.84375 204.67578125 C-53.46629283 202.29806442 -56.18106244 200.14072543 -59 198 C-60.77466926 196.5463371 -62.54549823 195.08797353 -64.3125 193.625 C-65.22902344 192.8825 -66.14554688 192.14 -67.08984375 191.375 C-71.89276116 187.45530364 -76.60584738 183.43043326 -81.32958984 179.41601562 C-83.00375841 177.99681397 -84.68271475 176.58349229 -86.36328125 175.171875 C-96.26805747 166.84595314 -106.13555446 158.45080964 -115 149 C-115.73476563 148.24074219 -116.46953125 147.48148438 -117.2265625 146.69921875 C-119.46919596 143.28587135 -119.61038116 140.51801969 -119.5 136.5625 C-119.48347382 135.8501268 -119.46694763 135.1377536 -119.44992065 134.40379333 C-119.22385994 128.70070514 -118.38296696 123.35964055 -117.2265625 117.78125 C-115.23931753 107.51944563 -114.02145043 97.22620308 -112.9296875 86.83984375 C-112.84501976 86.03648149 -112.76035202 85.23311924 -112.67311859 84.40541267 C-112.06230157 78.58393652 -111.4675382 72.7608602 -110.875 66.9375 C-110.27478776 61.05058816 -109.6689124 55.16433688 -109.05145645 49.27920723 C-108.80945504 46.94826439 -108.57633625 44.61654795 -108.34371948 42.28465271 C-108.19554371 40.86021685 -108.04697519 39.43582177 -107.89794922 38.01147461 C-107.77233612 36.77433212 -107.64672302 35.53718964 -107.51730347 34.26255798 C-106.59493702 28.44532652 -106.59493702 28.44532652 -105 26 C-102.21298555 24.84440539 -99.77426419 24.06860011 -96.86938477 23.36865234 C-96.02844772 23.14840897 -95.18751068 22.92816559 -94.3210907 22.70124817 C-91.53258497 21.97619734 -88.73748567 21.28115402 -85.94140625 20.5859375 C-83.99715842 20.08645592 -82.05339231 19.58509576 -80.11009216 19.0819397 C-74.98144698 17.75932151 -69.84675902 16.46185755 -64.71038818 15.1696167 C-59.51998964 13.85941217 -54.33538631 12.52670713 -49.15039062 11.1953125 C-43.30602295 9.69592523 -37.46111567 8.19894329 -31.61195374 6.71835327 C-30.71987685 6.49251368 -29.82779997 6.26667408 -28.90869045 6.03399086 C-27.19721866 5.6008506 -25.48567171 5.16800717 -23.77404118 4.73549461 C-18.51099268 3.40034887 -13.27116588 2.0008129 -8.05430603 0.49356079 C-5.33737377 -0.15920039 -2.77753035 -0.22520516 0 0 Z " fill="#2F3082" transform="translate(722,1042)"/>
<path d="M0 0 C6.86515862 -0.26404456 13.25846717 0.74158054 20 2 C19.79157467 12.97075171 17.9533183 23.52874978 16.01342773 34.30810547 C14.38685939 43.45675108 13.05369428 52.59599069 11.875 61.8125 C10.74055276 70.66343487 9.46193459 79.39529696 7.7265625 88.1484375 C2.37498929 110.63628969 2.37498929 110.63628969 7 132 C7.33 132.99 7.66 133.98 8 135 C10.50447516 136.21869929 10.50447516 136.21869929 13 137 C13 140 13 140 10.31640625 142.8984375 C9.07539519 144.06830563 7.82318759 145.22636311 6.5625 146.375 C5.88872314 146.9942334 5.21494629 147.6134668 4.52075195 148.25146484 C-36.33007323 185.21598698 -88.95962576 209.63407041 -143.79199219 215.62988281 C-146.16867088 215.90408714 -148.54133457 216.21359318 -150.91113281 216.54199219 C-177.6663948 220.23250733 -177.6663948 220.23250733 -184.91015625 215.4609375 C-188.70017177 212.14956419 -191.33437308 208.22743524 -194 204 C-194.82863982 202.88899941 -195.6692948 201.78682819 -196.5234375 200.6953125 C-198.88137648 197.55400509 -200.96225077 194.35675745 -203 191 C-203.51336914 190.15646973 -203.51336914 190.15646973 -204.03710938 189.29589844 C-208.49954146 181.83199936 -211.90053304 174.12730969 -214.8125 165.9375 C-215.0904541 165.15947021 -215.3684082 164.38144043 -215.65478516 163.57983398 C-219.58878505 151.98255554 -221.47343022 140.25851537 -222.1875 128.0625 C-222.30484497 126.13954102 -222.30484497 126.13954102 -222.42456055 124.17773438 C-224.3437506 90.80417435 -224.26735256 59.00318627 -208 29 C-199.45035827 29 -191.3736143 38.80572316 -185.50537109 44.48388672 C-183.04639331 46.96041153 -180.75063909 49.57569091 -178.4375 52.1875 C-168.98107773 62.71283571 -160.71927599 67.18285384 -146.82714844 69.33691406 C-124.32950362 72.83697157 -124.32950362 72.83697157 -118.5 78.375 C-114.18371898 85.92849179 -114.06109974 94.39599085 -113.23242188 102.87890625 C-112.15546236 112.86309449 -109.63864313 117.77363245 -102.25390625 124.55859375 C-96.58832318 130.69549049 -95.39589048 135.26177511 -95.6875 143.375 C-95.69716797 144.17421875 -95.70683594 144.9734375 -95.71679688 145.796875 C-95.81822214 151.24738036 -96.33338088 156.59117168 -97 162 C-73.97638985 162 -39.52404607 132.56980733 -24.35546875 117.42578125 C-23.23496591 116.28582959 -22.11631462 115.14405335 -21 114 C-18.40683335 111.39898716 -15.80543412 108.81027809 -13.17578125 106.24609375 C-12.22132923 105.30992125 -11.26690229 104.3737232 -10.3125 103.4375 C-9.82716797 102.96892578 -9.34183594 102.50035156 -8.84179688 102.01757812 C-6.31533219 99.52596123 -4.33271138 97.31229436 -3 94 C-3.56267578 93.34257813 -3.56267578 93.34257813 -4.13671875 92.671875 C-12.9704842 81.7242362 -15.1928358 70.4941064 -15.3125 56.8125 C-15.34150391 55.72646484 -15.37050781 54.64042969 -15.40039062 53.52148438 C-15.4951513 41.38482848 -10.62407079 32.86415605 -4.53515625 22.70117188 C-0.220531 15.23856476 1.81499245 8.53046451 0 0 Z " fill="#62BCF4" transform="translate(1146,680)"/>
<path d="M0 0 C-0.9039846 6.54990325 -1.82999902 13.09642579 -2.77099609 19.64111328 C-3.08818825 21.86533839 -3.40043261 24.09027518 -3.70751953 26.31591797 C-4.15121038 29.52513815 -4.61295765 32.73133104 -5.078125 35.9375 C-5.27683197 37.41766602 -5.27683197 37.41766602 -5.47955322 38.92773438 C-6.48944125 45.71869683 -7.88596047 52.23438447 -13.234375 56.984375 C-16.93149981 58.3420762 -20.37039453 58.35986493 -24.25 58.25 C-25.31927734 58.24226562 -25.31927734 58.24226562 -26.41015625 58.234375 C-30.05048147 58.18190184 -33.61649706 57.95469596 -37.22900391 57.50219727 C-41.74732714 56.98775134 -46.21297614 56.8074897 -50.7578125 56.76171875 C-51.57135193 56.75197021 -52.38489136 56.74222168 -53.2230835 56.73217773 C-96.43622101 56.32219564 -140.45800959 59.66278064 -173.1875 91.0703125 C-177.68955151 95.60026929 -181.37615247 100.75640244 -185 106 C-185.99 105.67 -186.98 105.34 -188 105 C-190.73021125 105.63742458 -193.34867621 106.35362835 -196.0234375 107.17578125 C-197.23043808 107.53635117 -197.23043808 107.53635117 -198.46182251 107.90420532 C-201.10268314 108.69698502 -203.73900665 109.50369427 -206.375 110.3125 C-207.27847168 110.58732208 -208.18194336 110.86214417 -209.11279297 111.14529419 C-260.78824919 126.86964886 -310.6197299 147.5055027 -357.75 174 C-358.6474292 174.50329834 -359.5448584 175.00659668 -360.46948242 175.52514648 C-368.25414526 179.97974042 -376.20758547 184.72177745 -382.5 191.1875 C-383.44359375 192.13689453 -383.44359375 192.13689453 -384.40625 193.10546875 C-387.51334621 196.79895322 -388.54200031 200.00372941 -388.46875 204.90234375 C-387.72214247 208.24341245 -385.69055823 210.1876388 -383.3125 212.5546875 C-382 214 -382 214 -382 216 C-389.73363733 215.49563235 -397.01534194 212.55208319 -402.375 206.8125 C-409.03058052 197.98251108 -410.13145234 188.86425155 -409 178 C-408.09708438 174.07891139 -406.7400861 170.62111376 -405 167 C-404.57589844 166.09765625 -404.15179687 165.1953125 -403.71484375 164.265625 C-394.45649153 146.00681337 -377.7266293 131.31840948 -361.5625 119.1953125 C-359.20712445 117.3934502 -356.95413119 115.47411667 -354.6875 113.5625 C-311.64610079 78.2497024 -257.56695218 51.59012513 -205 34 C-204.27022949 33.75540039 -203.54045898 33.51080078 -202.78857422 33.25878906 C-183.52794633 26.8621478 -164.0340163 22.06312318 -144.125 18.1875 C-143.3414212 18.0344339 -142.55784241 17.8813678 -141.7505188 17.72366333 C-133.86098579 16.19104498 -126.01563849 14.70296602 -118 14 C-117.9071875 15.5159375 -117.9071875 15.5159375 -117.8125 17.0625 C-117.00775001 22.44562492 -114.25772639 25.9675343 -110.27734375 29.55078125 C-105.650546 32.9234983 -101.43053618 33.83030678 -95.73828125 33.546875 C-86.31299881 31.66450761 -79.51313276 22.92178393 -73.5 16 C-72.3349986 14.6652114 -71.16832003 13.33188483 -70 12 C-69.39929687 11.30777344 -68.79859375 10.61554687 -68.1796875 9.90234375 C-67.58414062 9.25394531 -66.98859375 8.60554687 -66.375 7.9375 C-65.58222656 7.05384766 -65.58222656 7.05384766 -64.7734375 6.15234375 C-63 5 -63 5 -60.77709961 5.4699707 C-57.540573 6.08768492 -55.05223324 5.79293378 -51.79296875 5.328125 C-49.96934814 5.07518677 -49.96934814 5.07518677 -48.10888672 4.81713867 C-46.8148291 4.62998291 -45.52077148 4.44282715 -44.1875 4.25 C-42.84666387 4.06315145 -41.50567854 3.87737063 -40.16455078 3.69262695 C-37.43690852 3.31647866 -34.70972409 2.93728241 -31.98291016 2.55517578 C-26.11754648 1.73537021 -20.24812086 0.94968514 -14.375 0.1875 C-13.38137451 0.05182617 -12.38774902 -0.08384766 -11.36401367 -0.22363281 C-10.44724854 -0.3419043 -9.5304834 -0.46017578 -8.5859375 -0.58203125 C-7.7923584 -0.68749268 -6.9987793 -0.7929541 -6.18115234 -0.90161133 C-3.89770697 -1.00461429 -2.19150376 -0.59518226 0 0 Z " fill="#62BCF4" transform="translate(1096,576)"/>
<path d="M0 0 C0.93328125 -0.03738281 1.8665625 -0.07476562 2.828125 -0.11328125 C8.99199846 0.78493026 12.96125564 5.30862571 17.125 9.625 C20.12624183 12.72805387 23.13112429 15.67284886 26.41259766 18.47729492 C30.84669087 22.33988994 34.99219154 26.44462961 39.125 30.625 C39.89376465 31.39755127 40.6625293 32.17010254 41.45458984 32.96606445 C44.7085983 36.23626036 47.95656266 39.5124349 51.20507812 42.78808594 C53.59295352 45.19415285 55.98390793 47.59713038 58.375 50 C59.09606934 50.72936768 59.81713867 51.45873535 60.56005859 52.21020508 C64.49141258 56.16026242 68.5267092 59.89632969 72.74691772 63.53427124 C76.34478122 66.72826103 79.70100195 70.16175495 83.08203125 73.58203125 C84.21967171 74.72535164 84.21967171 74.72535164 85.3802948 75.89176941 C87.77682848 78.30041139 90.17006257 80.71228972 92.5625 83.125 C95.73280814 86.32187761 98.90639902 89.51544331 102.08203125 92.70703125 C102.80703323 93.44033157 103.53203522 94.1736319 104.27900696 94.92915344 C104.95368515 95.60713486 105.62836334 96.28511627 106.32348633 96.98364258 C106.91446609 97.57985916 107.50544586 98.17607574 108.11433411 98.7903595 C111.59714094 102.03143787 113.89784698 102.59146574 118.52734375 102.8046875 C119.68169922 102.87042969 120.83605469 102.93617188 122.02539062 103.00390625 C124.43134565 103.1245248 126.83760265 103.23928936 129.24414062 103.34765625 C139.97593811 103.97649568 149.30397871 106.63734098 158.75 111.75 C160.3278125 112.58337891 160.3278125 112.58337891 161.9375 113.43359375 C165.50181289 115.81475278 167.83429597 118.48109195 169.75 122.3125 C170.30008321 126.82137877 170.19871217 130.35898664 168.25 134.5 C156.91790654 147.24860514 140.8767568 151.15145741 124.55273438 152.5234375 C117.61344783 153.16791888 113.3490199 154.28391259 108.375 159.4375 C107.31152344 160.52417969 107.31152344 160.52417969 106.2265625 161.6328125 C104.25941027 163.76130844 102.34522042 165.91398491 100.4453125 168.1015625 C96.73829044 172.36050346 92.88657287 176.46773477 89 180.5625 C83.4565622 186.42670619 77.9622257 192.32762799 72.5234375 198.2890625 C69.29256378 201.82201937 66.02062256 205.31637802 62.75 208.8125 C57.67026258 214.24322603 52.62820956 219.70493789 47.6171875 225.19921875 C45.47714945 227.5349827 43.31011751 229.84347685 41.1328125 232.14453125 C40.19791992 233.13549805 40.19791992 233.13549805 39.24414062 234.14648438 C38.03545738 235.42589516 36.82343464 236.70216287 35.60742188 237.97460938 C31.9300135 241.87257742 28.77560337 245.88741343 25.75 250.3125 C24.64205078 250.00505859 24.64205078 250.00505859 23.51171875 249.69140625 C16.57672596 247.84971185 9.91250663 246.72138325 2.75 246.3125 C2.51405648 241.04394495 3.27518728 236.68397817 4.91796875 231.72265625 C5.14932022 230.9968486 5.38067169 230.27104095 5.61903381 229.52323914 C6.38226921 227.13729173 7.15980464 224.75626926 7.9375 222.375 C8.47385541 220.7069864 9.00932215 219.03868681 9.54394531 217.37011719 C11.26458377 212.01276563 13.00581438 206.6622239 14.75 201.3125 C15.36477167 199.42497578 15.97951757 197.53744316 16.59423828 195.64990234 C16.89989212 194.71178207 17.20554596 193.7736618 17.52046204 192.80711365 C18.12983318 190.93677688 18.73903782 189.06638585 19.34806824 187.19593811 C20.80465829 182.72384398 22.26528135 178.25316311 23.73510742 173.78540039 C24.26613287 172.16423168 24.79713972 170.54305687 25.328125 168.921875 C25.57442154 168.17781906 25.82071808 167.43376312 26.07447815 166.66716003 C27.31833176 163.06535979 27.31833176 163.06535979 27.75 159.3125 C10.78894351 156.58865962 -6.17923787 154.23434456 -23.25 152.3125 C-22.62190239 144.12037164 -21.53251968 136.05083101 -20.25 127.9375 C-19.98316406 126.21466797 -19.98316406 126.21466797 -19.7109375 124.45703125 C-18.97224579 119.72168662 -18.21911592 115.00692327 -17.25 110.3125 C-16.21230469 110.35117187 -15.17460938 110.38984375 -14.10546875 110.4296875 C-7.85331435 110.42693385 -1.73026924 109.37311642 4.4375 108.4375 C6.25217773 108.17646484 6.25217773 108.17646484 8.10351562 107.91015625 C9.26947266 107.73613281 10.43542969 107.56210937 11.63671875 107.3828125 C12.69076904 107.22570801 13.74481934 107.06860352 14.83081055 106.90673828 C17.66468282 106.3298674 20.10905657 105.47603727 22.75 104.3125 C20.623404 97.70913854 18.23869827 91.23350031 15.72265625 84.76953125 C15.33712585 83.77496414 14.95159546 82.78039703 14.55438232 81.75569153 C13.73269723 79.63737928 12.90998989 77.51946332 12.08633423 75.4019165 C10.80171144 72.09724663 9.52201183 68.7907008 8.24291992 65.48388672 C4.52384684 55.88651763 0.78907977 46.30129495 -3.171875 36.80078125 C-3.60150291 35.76250938 -3.60150291 35.76250938 -4.03981018 34.70326233 C-5.319491 31.61124631 -6.61438391 28.53003477 -7.94702148 25.46020508 C-10.75068109 18.72440398 -12.41480346 12.64842087 -11.25 5.3125 C-8.10698518 0.91227925 -5.22545057 0.13563328 0 0 Z M132.75 109.3125 C131.95643199 111.05921588 131.95643199 111.05921588 131.75 113.3125 C132.21792969 114.02664063 132.68585938 114.74078125 133.16796875 115.4765625 C135.43451874 119.53956323 135.1509583 123.11597495 135.0625 127.6875 C135.06572266 128.5125 135.06894531 129.3375 135.07226562 130.1875 C135.02796806 135.26158469 134.3762684 139.50496552 132.75 144.3125 C133.74 144.9725 134.73 145.6325 135.75 146.3125 C143.33291871 144.46111488 150.21438626 140.75639025 154.75 134.3125 C156.67697384 130.1620948 156.9841589 128.24913561 155.875 123.8125 C152.87109479 118.05069906 148.34681429 114.32270235 142.3359375 111.984375 C139.15654824 111.0007731 135.98170242 110.10564648 132.75 109.3125 Z " fill="#63BCF4" transform="translate(1235.25,482.6875)"/>
<path d="M0 0 C1.16015625 1.7421875 1.16015625 1.7421875 2.0625 3.875 C3.3431985 6.85413557 4.58018025 8.82010572 7 11 C6.69707031 11.77859375 6.39414062 12.5571875 6.08203125 13.359375 C-9.57934853 55.18730624 -11.25750913 103.49268607 3 146 C3.27827637 146.84691406 3.55655273 147.69382812 3.84326172 148.56640625 C8.41980288 162.3282066 14.19183226 175.20316619 21 188 C17.52757899 189.15747367 16.40653234 188.79628275 12.94140625 187.84765625 C11.92578613 187.57002441 10.91016602 187.29239258 9.86376953 187.00634766 C8.22964111 186.53914307 8.22964111 186.53914307 6.5625 186.0625 C5.43956543 185.7432959 4.31663086 185.4240918 3.15966797 185.09521484 C-7.2015153 182.07130608 -17.13405698 178.36242312 -27 174 C-27.80131348 173.64679688 -28.60262695 173.29359375 -29.42822266 172.9296875 C-54.66873987 161.6734392 -77.27532789 146.74059524 -97.67578125 128.1015625 C-99.70565015 126.26615163 -101.7770936 124.50618556 -103.875 122.75 C-119.02818526 109.48715173 -130.9695931 92.70689811 -142 76 C-142.42039551 75.36513672 -142.84079102 74.73027344 -143.27392578 74.07617188 C-144.44751088 72.28900537 -145.6027759 70.4916749 -146.75 68.6875 C-147.40484375 67.66011719 -148.0596875 66.63273438 -148.734375 65.57421875 C-150 63 -150 63 -149 60 C-146.90135724 58.70313869 -144.86736757 57.5851797 -142.6640625 56.49609375 C-142.02890717 56.17214127 -141.39375183 55.84818878 -140.73934937 55.51441956 C-138.70580329 54.4794595 -136.66577216 53.45812628 -134.625 52.4375 C-132.59284263 51.41060174 -130.56210309 50.38096727 -128.53207397 49.34986877 C-127.2681758 48.70906866 -126.0027836 48.07120482 -124.73574829 47.43663025 C-122.03403613 46.07686416 -119.52193908 44.68129272 -117 43 C-116.01 43 -115.02 43 -114 43 C-112.34414211 45.36681338 -110.88245963 47.69593772 -109.4375 50.1875 C-102.55835597 61.59163143 -94.62636595 71.59604091 -85.51953125 81.29296875 C-83.44272275 83.52433044 -81.45920403 85.7917236 -79.5 88.125 C-75.12909363 93.16589931 -70.18497607 97.80386679 -65 102 C-64.34 102 -63.68 102 -63 102 C-62.97421875 100.75347656 -62.9484375 99.50695312 -62.921875 98.22265625 C-62.16759999 72.54429037 -53.48050106 50.89442803 -42.67904663 27.83294678 C-41.93957961 26.24648917 -41.2093067 24.65571088 -40.48867798 23.06060791 C-33.94883682 8.65714596 -33.94883682 8.65714596 -28.609375 6.1796875 C-27.0865523 5.73657983 -25.54820962 5.34406446 -24 5 C-22.2930857 4.42794143 -20.58870597 3.84827389 -18.88671875 3.26171875 C-17.15554256 2.73075514 -15.42244013 2.20603267 -13.6875 1.6875 C-12.80771484 1.41099609 -11.92792969 1.13449219 -11.02148438 0.84960938 C-9.74821289 0.46579102 -9.74821289 0.46579102 -8.44921875 0.07421875 C-7.68955811 -0.15692627 -6.92989746 -0.38807129 -6.1472168 -0.6262207 C-3.73497622 -1.04613433 -2.28189846 -0.85967032 0 0 Z " fill="#62BCF4" transform="translate(891,701)"/>
<path d="M0 0 C5.63530811 3.13754324 10.02423875 7.32320929 14.4140625 12.0078125 C16.36553564 14.13798909 16.36553564 14.13798909 19.32421875 15.9609375 C19.32421875 16.6209375 19.32421875 17.2809375 19.32421875 17.9609375 C19.89527344 18.21359375 20.46632813 18.46625 21.0546875 18.7265625 C23.62063407 20.12215478 25.48494396 21.73383182 27.63671875 23.7109375 C28.50167969 24.50371094 29.36664062 25.29648437 30.2578125 26.11328125 C31.28049479 27.06191078 32.30257791 28.01118646 33.32421875 28.9609375 C34.24678467 29.81582764 34.24678467 29.81582764 35.18798828 30.68798828 C39.58244254 34.76229524 43.97051432 38.84308132 48.32421875 42.9609375 C49.09507812 43.68410156 49.8659375 44.40726563 50.66015625 45.15234375 C55.01207622 49.88224738 55.97572481 56.21179014 55.71875 62.46484375 C54.28848523 71.5137466 47.03878562 77.90671404 40.96337891 84.24511719 C38.62442087 86.69346349 36.31756781 89.17133431 34.00756836 91.64697266 C32.11333229 93.67345671 30.2113829 95.69248532 28.30859375 97.7109375 C25.5447559 100.64768675 22.81013636 103.60882534 20.08984375 106.5859375 C19.38754639 107.34817627 18.68524902 108.11041504 17.96166992 108.89575195 C16.61865931 110.35380101 15.28240135 111.81811127 13.9543457 113.28979492 C9.23566742 118.38670428 4.35518696 122.91710551 -2.51171875 124.6953125 C-10.27917693 124.74311224 -14.98795241 122.16334867 -20.67578125 116.9609375 C-24.16752363 113.0535115 -25.08810169 110.3615596 -24.9921875 105.12524414 C-24.42878123 101.27138873 -22.46660765 98.3604941 -20.36328125 95.1484375 C-19.95916016 94.49423828 -19.55503906 93.84003906 -19.13867188 93.16601562 C-17.6090807 90.73110544 -16.13268312 88.41280232 -14.08129883 86.3840332 C-12.35124024 84.63233761 -11.98811257 83.38150522 -11.67578125 80.9609375 C-12.00578125 80.3009375 -12.33578125 79.6409375 -12.67578125 78.9609375 C-18.17554374 77.3451172 -23.20729335 78.57182762 -28.73828125 79.5234375 C-29.80522217 79.70688721 -30.87216309 79.89033691 -31.97143555 80.0793457 C-57.99299308 84.77658037 -80.94235075 94.61147277 -101.00854492 112.01269531 C-109.05192068 118.95841277 -114.91178907 123.36257018 -125.62890625 123.234375 C-130.71900502 122.77757126 -133.52754711 121.12599854 -137.171875 117.453125 C-140.78692954 113.04951748 -141.99918754 108.63065411 -141.67578125 102.9609375 C-137.45758805 87.93362421 -119.30238786 75.95767441 -106.67578125 67.9609375 C-105.94907227 67.49179932 -105.22236328 67.02266113 -104.47363281 66.53930664 C-98.13595754 62.57161832 -91.66098261 59.66434035 -84.67578125 57.0234375 C-83.54640137 56.59522705 -82.41702148 56.1670166 -81.25341797 55.72583008 C-60.24156822 47.94867904 -38.7413099 43.51868567 -16.67578125 39.9609375 C-16.67578125 36.20540722 -17.74721565 35.22904575 -19.98828125 32.2734375 C-24.55920566 25.90745371 -27.68825654 20.06073982 -26.67578125 11.9609375 C-24.98132319 6.39799971 -22.21124493 2.61408036 -17.07421875 -0.18359375 C-11.3639133 -2.22033136 -5.65393158 -2.19554131 0 0 Z " fill="#2F3082" transform="translate(1002.67578125,486.0390625)"/>
<path d="M0 0 C1.86091199 0.29334573 3.71389593 0.63708386 5.5625 1 C7.11130859 1.2784375 7.11130859 1.2784375 8.69140625 1.5625 C16.57559885 4.98798156 21.46849234 14.16359017 26.375 20.9375 C27.61132521 22.63459118 28.84826993 24.33123128 30.0859375 26.02734375 C30.6226709 26.76718506 31.1594043 27.50702637 31.71240234 28.26928711 C32.88646845 29.93488581 32.88646845 29.93488581 34 31 C36.67058851 31.14115161 39.32432238 31.04247107 42 31 C41.74724066 36.67378196 41.40647373 42.33525787 41 48 C40.90332031 49.56234375 40.90332031 49.56234375 40.8046875 51.15625 C40.01502349 58.04050038 37.09428103 62.0956767 32.7734375 67.40234375 C28.59093182 72.63430599 25.18408572 78.43979218 21.6940918 84.14624023 C18.70984024 88.88463255 16.29171762 92.68765281 11 95 C7.5187453 95.43483977 4.12586167 95.37984651 0.625 95.25 C-0.30183594 95.23195313 -1.22867187 95.21390625 -2.18359375 95.1953125 C-4.45681435 95.14844197 -6.72785407 95.08285525 -9 95 C-8.5193602 88.97958932 -6.61350296 84.6526068 -3.78125 79.36328125 C-3.36331177 78.56141891 -2.94537354 77.75955658 -2.51477051 76.93339539 C-1.18622393 74.38786703 0.15600426 71.84990034 1.5 69.3125 C2.84181962 66.76333139 4.1806169 64.2126589 5.51477051 61.6594696 C6.34340038 60.07533895 7.17679555 58.49368955 8.01550293 56.91487122 C8.39259399 56.19699936 8.76968506 55.4791275 9.15820312 54.73950195 C9.49049927 54.11219681 9.82279541 53.48489166 10.16516113 52.83857727 C11.05548331 50.87780833 11.65353547 49.12712869 12 47 C10.87800636 44.33874894 10.87800636 44.33874894 9.10546875 41.61328125 C8.47962891 40.59298828 7.85378906 39.57269531 7.20898438 38.52148438 C6.54189453 37.46251953 5.87480469 36.40355469 5.1875 35.3125 C4.53201172 34.24193359 3.87652344 33.17136719 3.20117188 32.06835938 C0.35965669 26.76610814 0.35965669 26.76610814 -4 23 C-3.52524326 19.72851069 -3.04443581 16.45793881 -2.5625 13.1875 C-2.42779297 12.25873047 -2.29308594 11.32996094 -2.15429688 10.37304688 C-2.02216797 9.48037109 -1.89003906 8.58769531 -1.75390625 7.66796875 C-1.63345947 6.84578857 -1.5130127 6.0236084 -1.38891602 5.17651367 C-1 3 -1 3 0 0 Z " fill="#62BCF4" transform="translate(1136,569)"/>
<path d="M0 0 C2.96551408 0.53837317 5.87672189 1.14165992 8.8125 1.8125 C10.04323242 2.08030273 10.04323242 2.08030273 11.29882812 2.35351562 C15.16104371 3.22118287 18.49338637 4.1149418 22 6 C21.54207842 14.39522897 19.07851796 22.0328407 16.60791016 30.01171875 C15.57319166 33.39595466 14.62863915 36.80676916 13.67578125 40.21484375 C13 42 13 42 11 44 C9.24414062 44.77783203 9.24414062 44.77783203 7.15625 45.5078125 C6.02896484 45.90419922 6.02896484 45.90419922 4.87890625 46.30859375 C4.09386719 46.57800781 3.30882812 46.84742188 2.5 47.125 C1.71496094 47.40214844 0.92992187 47.67929687 0.12109375 47.96484375 C-5.72371459 50 -5.72371459 50 -8 50 C-7.91959473 49.41210693 -7.83918945 48.82421387 -7.75634766 48.21850586 C-7.3789765 45.4582054 -7.00198336 42.69785344 -6.625 39.9375 C-6.48779541 38.93412598 -6.35059082 37.93075195 -6.20922852 36.89697266 C-5.60529965 32.47288378 -5.00248911 28.04882346 -4.42578125 23.62109375 C-1.54878597 1.54878597 -1.54878597 1.54878597 0 0 Z " fill="#62BBF3" transform="translate(1204,690)"/>
<path d="M0 0 C2 2 2 2 2.375 4.3125 C1.8869194 7.81041099 0.34685877 9.43312323 -2 12 C-1.85962479 10.18706911 -1.71255111 8.3746557 -1.5625 6.5625 C-1.48128906 5.55316406 -1.40007812 4.54382813 -1.31640625 3.50390625 C-1 1 -1 1 0 0 Z " fill="#5DADE8" transform="translate(1128,615)"/>
</svg>
