<svg xmlns="http://www.w3.org/2000/svg" version="1.1" xmlns:xlink="http://www.w3.org/1999/xlink"
  xmlns:svgjs="http://svgjs.dev/svgjs" width="1500" height="348" viewBox="0 0 1500 348">
  <g transform="matrix(1,0,0,1,-0.9090909090909918,-1.436357798412871)">
    <svg viewBox="0 0 396 92" data-background-color="#fbbaa7" preserveAspectRatio="xMidYMid meet"
      height="348" width="1500" xmlns="http://www.w3.org/2000/svg"
      xmlns:xlink="http://www.w3.org/1999/xlink">
      <g id="tight-bounds" transform="matrix(1,0,0,1,0.2400000000000091,0.37972677429306145)">
        <svg viewBox="0 0 395.52 91.24054645141388" height="91.24054645141388" width="395.52">
          <g>
            <svg viewBox="0 0 395.52 91.24054645141388" height="91.24054645141388" width="395.52">
              <g transform="matrix(1,0,0,1,0,60.73771868791774)">
                <svg viewBox="0 0 395.52 30.502827763496143" height="30.502827763496143"
                  width="395.52">
                  <g id="textblocktransform">
                    <svg viewBox="0 0 395.52 30.502827763496143" height="30.502827763496143"
                      width="395.52" id="textblock">
                      <g>
                        <svg viewBox="0 0 395.52 30.502827763496143" height="30.502827763496143"
                          width="395.52">
                          <g transform="matrix(1,0,0,1,0,0)">
                            <svg width="395.52" viewBox="0.6 -39 525.13 40.5"
                              height="30.502827763496143" data-palette-color="#fe2858">
                              <path
                                d="M27.1-22.6L27.1-22.6Q34.6-22.6 39.65-21.95 44.7-21.3 47.7-19.93 50.7-18.55 52-16.43 53.3-14.3 53.3-11.4L53.3-11.4Q53.3-8.25 51.28-5.83 49.25-3.4 45.63-1.78 42-0.15 37.23 0.68 32.45 1.5 26.95 1.5L26.95 1.5Q20.85 1.5 15.85 0.6 10.85-0.3 7.35-2.18 3.85-4.05 2.13-7 0.4-9.95 0.75-14.05L0.75-14.05 22.1-15.5Q21.7-14 22.33-13 22.95-12 24.3-11.5 25.65-11 27.3-11L27.3-11Q28.3-11 29.13-11.15 29.95-11.3 30.6-11.6 31.25-11.9 31.6-12.38 31.95-12.85 31.95-13.45L31.95-13.45Q31.95-14.65 30.73-15 29.5-15.35 27.15-15.35L27.15-15.35Q27.05-15.35 26.93-15.35 26.8-15.35 26.68-15.35 26.55-15.35 26.4-15.35 26.25-15.35 26.13-15.35 26-15.35 25.9-15.35L25.9-15.35Q18.5-15.35 13.6-16.13 8.7-16.9 5.85-18.3 3-19.7 1.8-21.63 0.6-23.55 0.6-25.95L0.6-25.95Q0.6-28.5 1.95-30.58 3.3-32.65 5.78-34.23 8.25-35.8 11.58-36.85 14.9-37.9 18.88-38.45 22.85-39 27.2-39L27.2-39Q33.35-39 38.23-37.9 43.1-36.8 46.43-34.75 49.75-32.7 51.2-29.85 52.65-27 51.9-23.45L51.9-23.45 31.25-22.5Q31.8-23.95 31.2-24.88 30.6-25.8 29.33-26.23 28.05-26.65 26.45-26.65L26.45-26.65Q25.45-26.65 24.65-26.48 23.85-26.3 23.28-25.98 22.7-25.65 22.38-25.2 22.05-24.75 22.05-24.25L22.05-24.25Q22.05-23.65 22.45-23.28 22.85-22.9 23.68-22.75 24.5-22.6 25.85-22.6L25.85-22.6Q25.95-22.6 26.08-22.6 26.2-22.6 26.33-22.6 26.45-22.6 26.58-22.6 26.7-22.6 26.83-22.6 26.95-22.6 27.1-22.6ZM99.9-37.5L99.9-37.5 120.15-37.5Q119.05-32.8 117.97-28.13 116.9-23.45 115.8-18.75 114.7-14.05 113.62-9.38 112.55-4.7 111.5 0L111.5 0 88.25 0 85.25-18.8Q85.25-18.85 85.22-18.88 85.2-18.9 85.2-18.9 85.2-18.9 85.17-18.9 85.15-18.9 85.12-18.88 85.1-18.85 85.1-18.8L85.1-18.8 82.15 0 60.45 0Q59.55-3.75 58.65-7.5 57.75-11.25 56.82-15 55.9-18.75 55-22.5 54.1-26.25 53.17-30 52.25-33.75 51.35-37.5L51.35-37.5 72.65-37.5Q73.05-34.95 73.42-32.38 73.8-29.8 74.17-27.25 74.55-24.7 74.95-22.13 75.35-19.55 75.7-17L75.7-17Q75.7-17 75.75-17 75.8-17 75.85-17 75.9-17 75.92-17 75.95-17 75.95-17L75.95-17 78.75-37.5 93.8-37.5 96.75-17Q96.75-17 96.75-17 96.75-17 96.77-17 96.8-17 96.8-17 96.8-17 96.82-17 96.85-17 96.85-17 96.85-17 96.85-17L96.85-17Q97.6-22.15 98.37-27.25 99.15-32.35 99.9-37.5ZM142.1 0L121.35 0Q121.35-3.6 121.35-7.2 121.35-10.8 121.35-14.4 121.35-18 121.35-21.6 121.35-25.2 121.35-28.8L121.35-28.8Q121.35-31 121.35-33.18 121.35-35.35 121.35-37.5L121.35-37.5 142.1-37.5Q142.1-32.65 142.1-27.83 142.1-23 142.1-18.15L142.1-18.15Q142.1-15.15 142.1-12.13 142.1-9.1 142.1-6.08 142.1-3.05 142.1 0L142.1 0ZM144.09-37.5L175.74-37.5Q180.39-37.5 183.87-36.23 187.34-34.95 189.62-32.77 191.89-30.6 193.04-27.85 194.19-25.1 194.19-22.15L194.19-22.15Q194.19-19 193.02-16.18 191.84-13.35 189.52-11.15 187.19-8.95 183.74-7.68 180.29-6.4 175.74-6.4L175.74-6.4 164.99-6.4Q164.99-6.4 164.97-6.38 164.94-6.35 164.92-6.35 164.89-6.35 164.89-6.3L164.89-6.3 164.89 0 144.09 0Q144.09-3.35 144.09-6.7 144.09-10.05 144.09-13.4 144.09-16.75 144.09-20.1 144.09-23.45 144.09-26.8L144.09-26.8Q144.09-29.5 144.09-32.18 144.09-34.85 144.09-37.5L144.09-37.5ZM164.99-17.25L169.59-17.25Q171.09-17.25 172.12-17.78 173.14-18.3 173.64-19.13 174.14-19.95 174.14-20.8L174.14-20.8Q174.14-21.7 173.64-22.48 173.14-23.25 172.14-23.75 171.14-24.25 169.59-24.25L169.59-24.25 164.99-24.25Q164.94-24.25 164.92-24.23 164.89-24.2 164.89-24.15L164.89-24.15 164.89-17.3Q164.89-17.3 164.92-17.3 164.94-17.3 164.97-17.28 164.99-17.25 164.99-17.25L164.99-17.25ZM237.64-37.5L237.64-24.9 215.89-24.9Q215.84-24.9 215.84-24.9 215.84-24.9 215.84-24.9L215.84-24.9 215.84-22.15Q215.84-22.1 215.84-22.08 215.84-22.05 215.84-22.05 215.84-22.05 215.87-22.05 215.89-22.05 215.89-22.05L215.89-22.05 236.89-22.05 236.89-15 215.89-15Q215.89-15 215.87-15 215.84-15 215.84-14.98 215.84-14.95 215.84-14.9L215.84-14.9 215.84-12.1Q215.84-12.1 215.84-12.1 215.84-12.1 215.84-12.1 215.84-12.1 215.87-12.1 215.89-12.1 215.89-12.1L215.89-12.1 237.94-12.1 237.94 0 195.59 0Q195.59-2.95 195.59-5.93 195.59-8.9 195.59-11.85 195.59-14.8 195.59-17.78 195.59-20.75 195.59-23.73 195.59-26.7 195.59-29.65L195.59-29.65Q195.59-31.6 195.59-33.58 195.59-35.55 195.59-37.5L195.59-37.5 237.64-37.5ZM249.44-37.5L280.49-37.5Q281.39-34.4 282.26-31.28 283.14-28.15 284.01-25.03 284.89-21.9 285.79-18.78 286.69-15.65 287.56-12.53 288.44-9.4 289.31-6.28 290.19-3.15 291.09 0L291.09 0 268.79 0 267.94-4.9Q267.74-4.9 267.59-4.9 267.44-4.9 267.24-4.9L267.24-4.9 261.74-4.9Q261.59-4.9 261.44-4.9 261.29-4.9 261.14-4.9L261.14-4.9 260.29 0 238.94 0Q239.84-3.15 240.71-6.28 241.59-9.4 242.46-12.53 243.34-15.65 244.21-18.78 245.09-21.9 245.96-25.03 246.84-28.15 247.71-31.28 248.59-34.4 249.44-37.5L249.44-37.5ZM261.74-8.45L261.74-8.45Q261.74-8.4 261.74-8.4 261.74-8.4 261.79-8.4L261.79-8.4 267.29-8.4Q267.34-8.4 267.34-8.43 267.34-8.45 267.34-8.45 267.34-8.45 267.34-8.45L267.34-8.45Q267.34-8.45 267.14-9.68 266.94-10.9 266.61-12.78 266.29-14.65 265.94-16.78 265.59-18.9 265.29-20.8 264.99-22.7 264.76-23.9 264.54-25.1 264.54-25.1L264.54-25.1Q264.54-25.1 264.51-25.1 264.49-25.1 264.49-25.1L264.49-25.1Q264.49-25.1 264.29-23.9 264.09-22.7 263.76-20.8 263.44-18.9 263.09-16.78 262.74-14.65 262.44-12.78 262.14-10.9 261.94-9.68 261.74-8.45 261.74-8.45ZM321.74-16.8L321.74-37.5 340.99-37.5Q340.99-35.65 340.99-33.77 340.99-31.9 340.99-30.03 340.99-28.15 340.99-26.28 340.99-24.4 340.99-22.53 340.99-20.65 340.99-18.75L340.99-18.75Q340.99-14.05 340.99-9.38 340.99-4.7 340.99 0L340.99 0 317.84 0 311.54-18Q311.54-18 311.54-18.03 311.54-18.05 311.51-18.05 311.49-18.05 311.46-18.05 311.44-18.05 311.44-18.03 311.44-18 311.44-18L311.44-18Q311.44-13.6 311.44-9 311.44-4.4 311.44 0L311.44 0 292.19 0Q292.19-3.75 292.19-7.5 292.19-11.25 292.19-15 292.19-18.75 292.19-22.5 292.19-26.25 292.19-30 292.19-33.75 292.19-37.5L292.19-37.5 314.59-37.5 321.64-16.75Q321.64-16.75 321.64-16.75 321.64-16.75 321.66-16.75 321.69-16.75 321.71-16.75 321.74-16.75 321.74-16.78 321.74-16.8 321.74-16.8L321.74-16.8ZM342.98-37.5L372.78-37.5Q377.48-37.5 381.11-36.48 384.73-35.45 387.33-33.65 389.93-31.85 391.58-29.48 393.23-27.1 394.03-24.4 394.83-21.7 394.83-18.9L394.83-18.9Q394.83-15.35 393.56-11.98 392.28-8.6 389.61-5.9 386.93-3.2 382.76-1.6 378.58 0 372.78 0L372.78 0 342.98 0Q342.98-3.2 342.98-6.38 342.98-9.55 342.98-12.73 342.98-15.9 342.98-19.07 342.98-22.25 342.98-25.45L342.98-25.45Q342.98-28.45 342.98-31.48 342.98-34.5 342.98-37.5L342.98-37.5ZM368.78-23.1L368.78-23.1 362.83-23.1Q362.83-23.1 362.81-23.1 362.78-23.1 362.78-23.1 362.78-23.1 362.78-23.08 362.78-23.05 362.78-23L362.78-23 362.78-14.5Q362.78-14.45 362.78-14.43 362.78-14.4 362.78-14.4 362.78-14.4 362.81-14.4 362.83-14.4 362.83-14.4L362.83-14.4 368.88-14.4Q369.98-14.4 370.86-14.75 371.73-15.1 372.33-15.7 372.93-16.3 373.26-17.1 373.58-17.9 373.58-18.75L373.58-18.75Q373.58-19.95 373.01-20.95 372.43-21.95 371.38-22.53 370.33-23.1 368.78-23.1ZM438.38-37.5L438.38-22.8 417.13-22.8Q417.13-22.8 417.13-22.8 417.13-22.8 417.13-22.8 417.13-22.8 417.13-22.78 417.13-22.75 417.13-22.75L417.13-22.75 417.13-19.85Q417.13-19.8 417.13-19.8 417.13-19.8 417.13-19.8L417.13-19.8 437.63-19.8 437.63-7.9 417.13-7.9Q417.13-7.9 417.13-7.9 417.13-7.9 417.13-7.85L417.13-7.85Q417.13-6.15 417.13-5.03 417.13-3.9 417.13-2.8 417.13-1.7 417.13 0L417.13 0 396.33 0Q396.33-3.55 396.33-7.1 396.33-10.65 396.33-14.18 396.33-17.7 396.33-21.25 396.33-24.8 396.33-28.35L396.33-28.35Q396.33-30.65 396.33-32.93 396.33-35.2 396.33-37.5L396.33-37.5 438.38-37.5ZM460.93-14.8L460.93-14.8Q460.93-14.75 460.95-14.73 460.98-14.7 461.03-14.7L461.03-14.7 480.53-14.7 480.53 0 440.18 0Q440.18-3.1 440.18-6.2 440.18-9.3 440.18-12.43 440.18-15.55 440.18-18.65 440.18-21.75 440.18-24.85L440.18-24.85Q440.18-28 440.18-31.18 440.18-34.35 440.18-37.5L440.18-37.5 460.93-37.5Q460.93-34.65 460.93-31.83 460.93-29 460.93-26.15 460.93-23.3 460.93-20.48 460.93-17.65 460.93-14.8ZM503.03-37.5L503.03-37.5 525.73-37.5Q522.98-32.5 520.23-27.5 517.48-22.5 514.7-17.5 511.93-12.5 509.18-7.5L509.18-7.5Q509.18-7.5 509.18-7.5 509.18-7.5 509.18-7.5L509.18-7.5 509.18 0 488.43 0 488.43-7.55Q488.43-7.55 488.43-7.55 488.43-7.55 488.43-7.55L488.43-7.55Q486.68-10.55 484.95-13.55 483.23-16.55 481.5-19.55 479.78-22.55 478.03-25.53 476.28-28.5 474.55-31.5 472.83-34.5 471.08-37.5L471.08-37.5 495.08-37.5Q495.73-35.1 496.35-32.7 496.98-30.3 497.63-27.9 498.28-25.5 498.88-23.1L498.88-23.1Q498.88-23.1 498.9-23.08 498.93-23.05 498.93-23.05 498.93-23.05 498.95-23.08 498.98-23.1 498.98-23.1L498.98-23.1Q499.48-24.9 499.98-26.7 500.48-28.5 501-30.3 501.53-32.1 502.03-33.9 502.53-35.7 503.03-37.5Z"
                                opacity="1" transform="matrix(1,0,0,1,0,0)" fill="#fe2858"
                                class="wordmark-text-0" data-fill-palette-color="primary"
                                id="text-0"></path>
                            </svg>
                          </g>
                        </svg>
                      </g>
                    </svg>
                  </g>
                </svg>
              </g>
              <g transform="matrix(1,0,0,1,170.99163343958867,0)">
                <svg viewBox="0 0 53.53673312082262 53.536733120822625" height="53.536733120822625"
                  width="53.53673312082262">
                  <g>
                    <svg></svg>
                  </g>
                  <g id="icon-0">
                    <svg viewBox="0 0 53.53673312082262 53.536733120822625"
                      height="53.536733120822625" width="53.53673312082262">
                      <g>
                        <path transform="scale(0.53537,0.53537)"
                          d="M30 100c-16.569 0-30-13.431-30-30v-40c0-16.569 13.431-30 30-30h40c16.569 0 30 13.431 30 30v40c0 16.569-13.431 30-30 30z"
                          fill="#fe2858" fill-rule="nonzero" stroke="none" stroke-width="1"
                          stroke-linecap="butt" stroke-linejoin="miter" stroke-miterlimit="10"
                          stroke-dasharray="" stroke-dashoffset="0" font-family="none"
                          font-weight="none" font-size="none" text-anchor="none"
                          style="mix-blend-mode: normal" data-fill-palette-color="accent"></path>
                      </g>
                      <g transform="matrix(1,0,0,1,10.707346624164522,10.707346624164526)">
                        <svg viewBox="0 0 32.12203987249357 32.12203987249357"
                          height="32.12203987249357" width="32.12203987249357">
                          <g>
                            <svg xmlns="http://www.w3.org/2000/svg"
                              xmlns:xlink="http://www.w3.org/1999/xlink" version="1.1" x="0" y="0"
                              viewBox="0 0 26 26" style="enable-background:new 0 0 26 26;"
                              xml:space="preserve" height="32.12203987249357"
                              width="32.12203987249357" class="icon-dxe-0"
                              data-fill-palette-color="quaternary" id="dxe-0"><g fill="#fbbaa7" data-fill-palette-color="quaternary"><path d="M13 0C5.82 0 0 5.82 0 13S5.82 26 13 26 26 20.18 26 13 20.18 0 13 0M11.248 20.07C10.077 21.242 8.093 21.157 5.945 19.01 3.798 16.862 4.178 13 4.178 13S8.04 12.62 10.188 14.768C12.335 16.915 12.42 18.899 11.248 20.07M10 9.5C10 6.463 13 4 13 4S16 6.463 16 9.5 14.656 14 13 14 10 12.537 10 9.5M20.055 19.01C17.907 21.157 15.923 21.242 14.752 20.07 13.58 18.899 13.665 16.915 15.812 14.767 17.96 12.62 21.822 13 21.822 13S22.202 16.862 20.055 19.01" fill="#fbbaa7" data-fill-palette-color="quaternary"></path></g></svg>
                          </g>
                        </svg>
                      </g>
                    </svg>
                  </g>
                </svg>
              </g>
              <g></g>
            </svg>
          </g>
          <defs></defs>
        </svg>
        <rect width="395.52" height="91.24054645141388" fill="none" stroke="none"
          visibility="hidden"></rect>
      </g>
    </svg>
  </g>
</svg>